G75*
G70*
%OFA0B0*%
%FSLAX24Y24*%
%IPPOS*%
%LPD*%
%AMOC8*
5,1,8,0,0,1.08239X$1,22.5*
%
%ADD10C,0.0030*%
%ADD11C,0.0020*%
%ADD12C,0.0120*%
%ADD13C,0.0060*%
%ADD14C,0.0050*%
%ADD15C,0.0004*%
%ADD16R,0.0295X0.0295*%
%ADD17R,0.0150X0.0200*%
%ADD18C,0.0100*%
%ADD19R,0.0200X0.0150*%
%ADD20R,0.0170X0.0740*%
%ADD21C,0.0010*%
%ADD22C,0.0080*%
D10*
X001532Y002750D02*
X001779Y002750D01*
X002268Y002627D02*
X002330Y002565D01*
X002453Y002565D01*
X002515Y002627D01*
X002637Y002565D02*
X002637Y002935D01*
X002515Y002874D02*
X002453Y002935D01*
X002330Y002935D01*
X002268Y002874D01*
X002268Y002627D01*
X002637Y002750D02*
X002883Y002750D01*
X003005Y002874D02*
X003067Y002935D01*
X003190Y002935D01*
X003252Y002874D01*
X003252Y002812D01*
X003005Y002565D01*
X003252Y002565D01*
X002883Y002565D02*
X002883Y002935D01*
X004478Y002750D02*
X004725Y002750D01*
X005215Y002627D02*
X005277Y002565D01*
X005400Y002565D01*
X005462Y002627D01*
X005583Y002565D02*
X005583Y002935D01*
X005462Y002874D02*
X005400Y002935D01*
X005277Y002935D01*
X005215Y002874D01*
X005215Y002627D01*
X005583Y002750D02*
X005830Y002750D01*
X005951Y002812D02*
X006075Y002935D01*
X006075Y002565D01*
X006198Y002565D02*
X005951Y002565D01*
X005830Y002565D02*
X005830Y002935D01*
X007632Y003035D02*
X007879Y003035D01*
X007755Y003035D02*
X007755Y002665D01*
X008000Y002665D02*
X008247Y002665D01*
X008123Y002665D02*
X008123Y003035D01*
X008000Y002912D01*
X009105Y003035D02*
X009352Y003035D01*
X009228Y003035D02*
X009228Y002665D01*
X009473Y002665D02*
X009720Y002912D01*
X009720Y002974D01*
X009658Y003035D01*
X009535Y003035D01*
X009473Y002974D01*
X009473Y002665D02*
X009720Y002665D01*
X009603Y003265D02*
X009410Y003265D01*
X009361Y003313D01*
X009361Y003410D01*
X009410Y003458D01*
X009507Y003458D02*
X009507Y003362D01*
X009507Y003458D02*
X009603Y003458D01*
X009652Y003410D01*
X009652Y003313D01*
X009603Y003265D01*
X009652Y003560D02*
X009652Y003753D01*
X009652Y003656D02*
X009361Y003656D01*
X009458Y003560D01*
X009410Y004738D02*
X009603Y004738D01*
X009652Y004787D01*
X009652Y004883D01*
X009603Y004932D01*
X009507Y004932D01*
X009507Y004835D01*
X009410Y004738D02*
X009361Y004787D01*
X009361Y004883D01*
X009410Y004932D01*
X009410Y005033D02*
X009361Y005081D01*
X009361Y005178D01*
X009410Y005226D01*
X009458Y005226D01*
X009652Y005033D01*
X009652Y005226D01*
X009652Y005263D02*
X009652Y005360D01*
X009603Y005408D01*
X009507Y005408D01*
X009507Y005312D01*
X009603Y005215D02*
X009410Y005215D01*
X009361Y005263D01*
X009361Y005360D01*
X009410Y005408D01*
X009410Y005510D02*
X009361Y005558D01*
X009361Y005655D01*
X009410Y005703D01*
X009458Y005703D01*
X009507Y005655D01*
X009555Y005703D01*
X009603Y005703D01*
X009652Y005655D01*
X009652Y005558D01*
X009603Y005510D01*
X009507Y005606D02*
X009507Y005655D01*
X009652Y005263D02*
X009603Y005215D01*
X009603Y006983D02*
X009410Y006983D01*
X009361Y007031D01*
X009361Y007128D01*
X009410Y007176D01*
X009507Y007176D02*
X009507Y007080D01*
X009507Y007176D02*
X009603Y007176D01*
X009652Y007128D01*
X009652Y007031D01*
X009603Y006983D01*
X009507Y007278D02*
X009507Y007471D01*
X009652Y007423D02*
X009361Y007423D01*
X009507Y007278D01*
X009460Y011015D02*
X009654Y011015D01*
X009755Y011015D02*
X009948Y011015D01*
X010050Y011015D02*
X010195Y011015D01*
X010243Y011063D01*
X010243Y011257D01*
X010195Y011305D01*
X010050Y011305D01*
X010050Y011015D01*
X009852Y011160D02*
X009755Y011160D01*
X009755Y011305D02*
X009755Y011015D01*
X009557Y011160D02*
X009460Y011160D01*
X009460Y011305D02*
X009460Y011015D01*
X009262Y011160D02*
X009166Y011160D01*
X009166Y011015D02*
X009166Y011305D01*
X009359Y011305D01*
X009460Y011305D02*
X009654Y011305D01*
X009755Y011305D02*
X009948Y011305D01*
X009064Y011305D02*
X008871Y011305D01*
X008871Y011015D01*
X008770Y011063D02*
X008770Y011257D01*
X008721Y011305D01*
X008625Y011305D01*
X008576Y011257D01*
X008576Y011063D01*
X008625Y011015D01*
X008721Y011015D01*
X008770Y011063D01*
X008871Y011160D02*
X008968Y011160D01*
X008475Y011063D02*
X008427Y011015D01*
X008330Y011015D01*
X008282Y011063D01*
X008282Y011257D01*
X008330Y011305D01*
X008427Y011305D01*
X008475Y011257D01*
X004614Y011058D02*
X004614Y010865D01*
X004614Y011010D02*
X004421Y011010D01*
X004421Y011058D02*
X004518Y011155D01*
X004614Y011058D01*
X004421Y011058D02*
X004421Y010865D01*
X004320Y010913D02*
X004320Y011107D01*
X004271Y011155D01*
X004126Y011155D01*
X004126Y010865D01*
X004271Y010865D01*
X004320Y010913D01*
X004025Y010913D02*
X003977Y010865D01*
X003880Y010865D01*
X003832Y010913D01*
X003880Y011010D02*
X003977Y011010D01*
X004025Y010962D01*
X004025Y010913D01*
X003880Y011010D02*
X003832Y011058D01*
X003832Y011107D01*
X003880Y011155D01*
X003977Y011155D01*
X004025Y011107D01*
X002852Y011180D02*
X002481Y011180D01*
X002481Y011302D02*
X002481Y011487D01*
X002543Y011549D01*
X002790Y011549D01*
X002852Y011487D01*
X002852Y011302D01*
X002481Y011302D01*
X002481Y010933D02*
X002852Y011180D01*
X002852Y010933D02*
X002481Y010933D01*
X002543Y010812D02*
X002481Y010750D01*
X002481Y010627D01*
X002543Y010565D01*
X002790Y010565D01*
X002852Y010627D01*
X002852Y010750D01*
X002790Y010812D01*
X002667Y010812D01*
X002667Y010688D01*
X002667Y012038D02*
X002605Y012100D01*
X002605Y012285D01*
X002605Y012407D02*
X002481Y012530D01*
X002852Y012530D01*
X002852Y012407D02*
X002852Y012653D01*
X002852Y013143D02*
X002852Y013328D01*
X002790Y013390D01*
X002728Y013328D01*
X002728Y013205D01*
X002667Y013143D01*
X002605Y013205D01*
X002605Y013390D01*
X002543Y013512D02*
X002481Y013573D01*
X002481Y013697D01*
X002543Y013758D01*
X002605Y013758D01*
X002852Y013512D01*
X002852Y013758D01*
X003082Y013963D02*
X003130Y013915D01*
X003227Y013915D01*
X003275Y013963D01*
X003275Y014012D01*
X003227Y014060D01*
X003130Y014060D01*
X003082Y014108D01*
X003082Y014157D01*
X003130Y014205D01*
X003227Y014205D01*
X003275Y014157D01*
X003376Y014157D02*
X003376Y013963D01*
X003425Y013915D01*
X003521Y013915D01*
X003570Y013963D01*
X003671Y013915D02*
X003671Y014205D01*
X003570Y014157D02*
X003521Y014205D01*
X003425Y014205D01*
X003376Y014157D01*
X003671Y014012D02*
X003864Y014205D01*
X003719Y014060D02*
X003864Y013915D01*
X002852Y014372D02*
X002728Y014495D01*
X002481Y014495D01*
X002481Y014616D02*
X002481Y014802D01*
X002543Y014863D01*
X002790Y014863D01*
X002852Y014802D01*
X002852Y014616D01*
X002481Y014616D01*
X002481Y014248D02*
X002728Y014248D01*
X002852Y014372D01*
X002852Y014985D02*
X002481Y014985D01*
X002481Y015170D01*
X002543Y015232D01*
X002790Y015232D01*
X002852Y015170D01*
X002852Y014985D01*
X002790Y012285D02*
X002728Y012223D01*
X002728Y012100D01*
X002667Y012038D01*
X002852Y012038D02*
X002852Y012223D01*
X002790Y012285D01*
D11*
X008277Y010807D02*
X008350Y010660D01*
X008423Y010807D01*
X008498Y010770D02*
X008534Y010807D01*
X008608Y010807D01*
X008644Y010770D01*
X008644Y010733D01*
X008498Y010733D01*
X008498Y010697D02*
X008498Y010770D01*
X008498Y010697D02*
X008534Y010660D01*
X008608Y010660D01*
X008719Y010660D02*
X008719Y010807D01*
X008792Y010807D02*
X008719Y010733D01*
X008792Y010807D02*
X008829Y010807D01*
X008903Y010697D02*
X008939Y010697D01*
X008939Y010660D01*
X008903Y010660D01*
X008903Y010697D01*
X009013Y010660D02*
X009160Y010660D01*
X009087Y010660D02*
X009087Y010880D01*
X009013Y010807D01*
X009234Y010697D02*
X009271Y010697D01*
X009271Y010660D01*
X009234Y010660D01*
X009234Y010697D01*
X009345Y010697D02*
X009345Y010843D01*
X009381Y010880D01*
X009455Y010880D01*
X009492Y010843D01*
X009345Y010697D01*
X009381Y010660D01*
X009455Y010660D01*
X009492Y010697D01*
X009492Y010843D01*
X009787Y010843D02*
X009823Y010880D01*
X009897Y010880D01*
X009934Y010843D01*
X009934Y010807D01*
X009787Y010660D01*
X009934Y010660D01*
X010008Y010697D02*
X010155Y010843D01*
X010155Y010697D01*
X010118Y010660D01*
X010044Y010660D01*
X010008Y010697D01*
X010008Y010843D01*
X010044Y010880D01*
X010118Y010880D01*
X010155Y010843D01*
X010229Y010807D02*
X010302Y010880D01*
X010302Y010660D01*
X010229Y010660D02*
X010376Y010660D01*
X010450Y010660D02*
X010597Y010807D01*
X010597Y010843D01*
X010560Y010880D01*
X010486Y010880D01*
X010450Y010843D01*
X010450Y010660D02*
X010597Y010660D01*
X007284Y002880D02*
X007174Y002880D01*
X007174Y002660D01*
X007284Y002660D01*
X007320Y002697D01*
X007320Y002843D01*
X007284Y002880D01*
X007099Y002880D02*
X007099Y002660D01*
X006953Y002880D01*
X006953Y002660D01*
X006878Y002697D02*
X006878Y002770D01*
X006805Y002770D01*
X006732Y002843D02*
X006732Y002697D01*
X006768Y002660D01*
X006842Y002660D01*
X006878Y002697D01*
X006878Y002843D02*
X006842Y002880D01*
X006768Y002880D01*
X006732Y002843D01*
X006215Y002843D02*
X006215Y002697D01*
X006179Y002660D01*
X006069Y002660D01*
X006069Y002880D01*
X006179Y002880D01*
X006215Y002843D01*
X005994Y002843D02*
X005994Y002697D01*
X005958Y002660D01*
X005848Y002660D01*
X005848Y002880D01*
X005958Y002880D01*
X005994Y002843D01*
X005773Y002880D02*
X005773Y002733D01*
X005700Y002660D01*
X005627Y002733D01*
X005627Y002880D01*
X003659Y003741D02*
X003661Y003768D01*
X003667Y003795D01*
X003676Y003821D01*
X003689Y003845D01*
X003705Y003868D01*
X003724Y003887D01*
X003746Y003904D01*
X003770Y003918D01*
X003795Y003928D01*
X003822Y003935D01*
X003849Y003938D01*
X003877Y003937D01*
X003904Y003932D01*
X003930Y003924D01*
X003954Y003912D01*
X003977Y003896D01*
X003998Y003878D01*
X004015Y003857D01*
X004030Y003833D01*
X004041Y003808D01*
X004049Y003782D01*
X004053Y003755D01*
X004053Y003727D01*
X004049Y003700D01*
X004041Y003674D01*
X004030Y003649D01*
X004015Y003625D01*
X003998Y003604D01*
X003977Y003586D01*
X003955Y003570D01*
X003930Y003558D01*
X003904Y003550D01*
X003877Y003545D01*
X003849Y003544D01*
X003822Y003547D01*
X003795Y003554D01*
X003770Y003564D01*
X003746Y003578D01*
X003724Y003595D01*
X003705Y003614D01*
X003689Y003637D01*
X003676Y003661D01*
X003667Y003687D01*
X003661Y003714D01*
X003659Y003741D01*
D12*
X008367Y011650D02*
X008917Y012400D01*
X008367Y012400D01*
X009017Y013150D01*
X009317Y013200D02*
X008817Y012600D01*
X009317Y012600D01*
X008617Y011600D01*
X008367Y011750D02*
X008367Y012550D01*
X008667Y011600D02*
X008717Y011602D01*
X008767Y011607D01*
X008816Y011616D01*
X008864Y011628D01*
X008912Y011644D01*
X008958Y011663D01*
X009002Y011686D01*
X009045Y011711D01*
X009086Y011740D01*
X009125Y011771D01*
X009162Y011805D01*
X009196Y011842D01*
X009227Y011881D01*
X009256Y011922D01*
X009281Y011965D01*
X009304Y012009D01*
X009323Y012055D01*
X009339Y012103D01*
X009351Y012151D01*
X009360Y012200D01*
X009365Y012250D01*
X009367Y012300D01*
X009367Y013150D01*
X009017Y013200D02*
X008968Y013198D01*
X008920Y013193D01*
X008872Y013184D01*
X008825Y013171D01*
X008780Y013155D01*
X008735Y013136D01*
X008692Y013113D01*
X008651Y013087D01*
X008612Y013058D01*
X008575Y013026D01*
X008541Y012992D01*
X008509Y012955D01*
X008480Y012916D01*
X008454Y012875D01*
X008431Y012832D01*
X008412Y012787D01*
X008396Y012742D01*
X008383Y012695D01*
X008374Y012647D01*
X008369Y012599D01*
X008367Y012550D01*
D13*
X001367Y001200D02*
X001617Y000950D01*
X002117Y000950D01*
X002367Y001200D01*
X002617Y000950D01*
X003117Y000950D01*
X003367Y001200D01*
X003617Y000950D01*
X004117Y000950D01*
X004367Y001200D01*
X004617Y000950D01*
X005117Y000950D01*
X005367Y001200D01*
X005617Y000950D01*
X006117Y000950D01*
X006367Y001200D01*
X006617Y000950D01*
X007117Y000950D01*
X007367Y001200D01*
X007617Y000950D01*
X008117Y000950D01*
X008367Y001200D01*
X008617Y000950D01*
X009117Y000950D01*
X009367Y001200D01*
X009367Y001700D01*
X009117Y001950D01*
X008617Y001950D01*
X008367Y001700D01*
X008117Y001950D01*
X007617Y001950D01*
X007367Y001700D01*
X007117Y001950D01*
X006617Y001950D01*
X006367Y001700D01*
X006117Y001950D01*
X005617Y001950D01*
X005367Y001700D01*
X005117Y001950D01*
X004617Y001950D01*
X004367Y001700D01*
X004117Y001950D01*
X003617Y001950D01*
X003367Y001700D01*
X003117Y001950D01*
X002617Y001950D01*
X002367Y001700D01*
X002117Y001950D01*
X001617Y001950D01*
X001367Y001700D01*
X001367Y001200D01*
X002757Y003345D02*
X004072Y003345D01*
X005217Y004150D02*
X005217Y004950D01*
X005219Y004967D01*
X005223Y004984D01*
X005230Y005000D01*
X005240Y005014D01*
X005253Y005027D01*
X005267Y005037D01*
X005283Y005044D01*
X005300Y005048D01*
X005317Y005050D01*
X007017Y005050D01*
X007034Y005048D01*
X007051Y005044D01*
X007067Y005037D01*
X007081Y005027D01*
X007094Y005014D01*
X007104Y005000D01*
X007111Y004984D01*
X007115Y004967D01*
X007117Y004950D01*
X007117Y004150D01*
X007115Y004133D01*
X007111Y004116D01*
X007104Y004100D01*
X007094Y004086D01*
X007081Y004073D01*
X007067Y004063D01*
X007051Y004056D01*
X007034Y004052D01*
X007017Y004050D01*
X005317Y004050D01*
X005300Y004052D01*
X005283Y004056D01*
X005267Y004063D01*
X005253Y004073D01*
X005240Y004086D01*
X005230Y004100D01*
X005223Y004116D01*
X005219Y004133D01*
X005217Y004150D01*
X006017Y004550D02*
X006067Y004550D01*
X006267Y004550D02*
X006317Y004550D01*
X004076Y005255D02*
X002757Y005255D01*
X002659Y005170D02*
X002659Y005160D01*
X002617Y005850D02*
X002617Y008250D01*
X002615Y008280D01*
X002610Y008310D01*
X002601Y008339D01*
X002588Y008366D01*
X002573Y008392D01*
X002554Y008416D01*
X002533Y008437D01*
X002509Y008456D01*
X002483Y008471D01*
X002456Y008484D01*
X002427Y008493D01*
X002397Y008498D01*
X002367Y008500D01*
X001167Y008500D01*
X001137Y008498D01*
X001107Y008493D01*
X001078Y008484D01*
X001051Y008471D01*
X001025Y008456D01*
X001001Y008437D01*
X000980Y008416D01*
X000961Y008392D01*
X000946Y008366D01*
X000933Y008339D01*
X000924Y008310D01*
X000919Y008280D01*
X000917Y008250D01*
X000917Y005850D01*
X000919Y005793D01*
X000925Y005737D01*
X000934Y005681D01*
X000947Y005625D01*
X000964Y005571D01*
X000984Y005518D01*
X001008Y005467D01*
X001036Y005417D01*
X001066Y005369D01*
X001100Y005323D01*
X001137Y005280D01*
X001176Y005239D01*
X001218Y005201D01*
X001263Y005166D01*
X001310Y005134D01*
X001359Y005105D01*
X001409Y005079D01*
X001462Y005057D01*
X001515Y005038D01*
X001570Y005023D01*
X001626Y005012D01*
X001682Y005004D01*
X001739Y005000D01*
X001795Y005000D01*
X001852Y005004D01*
X001908Y005012D01*
X001964Y005023D01*
X002019Y005038D01*
X002072Y005057D01*
X002125Y005079D01*
X002175Y005105D01*
X002224Y005134D01*
X002271Y005166D01*
X002316Y005201D01*
X002358Y005239D01*
X002397Y005280D01*
X002434Y005323D01*
X002468Y005369D01*
X002498Y005417D01*
X002526Y005467D01*
X002550Y005518D01*
X002570Y005571D01*
X002587Y005625D01*
X002600Y005681D01*
X002609Y005737D01*
X002615Y005793D01*
X002617Y005850D01*
X001647Y007550D02*
X001517Y007550D01*
X001517Y007900D01*
X001517Y008250D01*
X001647Y008250D01*
X001647Y007550D01*
X001517Y007900D02*
X001267Y007900D01*
X001217Y007700D02*
X001217Y007400D01*
X001067Y007550D02*
X001367Y007550D01*
X001867Y007900D02*
X002067Y007900D01*
X002017Y009550D02*
X001867Y009550D01*
X001850Y009552D01*
X001833Y009556D01*
X001817Y009563D01*
X001803Y009573D01*
X001790Y009586D01*
X001780Y009600D01*
X001773Y009616D01*
X001769Y009633D01*
X001767Y009650D01*
X001767Y010250D01*
X001769Y010267D01*
X001773Y010284D01*
X001780Y010300D01*
X001790Y010314D01*
X001803Y010327D01*
X001817Y010337D01*
X001833Y010344D01*
X001850Y010348D01*
X001867Y010350D01*
X002017Y010350D01*
X002067Y010300D01*
X003467Y010300D01*
X003517Y010350D01*
X003667Y010350D01*
X003684Y010348D01*
X003701Y010344D01*
X003717Y010337D01*
X003731Y010327D01*
X003744Y010314D01*
X003754Y010300D01*
X003761Y010284D01*
X003765Y010267D01*
X003767Y010250D01*
X003767Y009650D01*
X003765Y009633D01*
X003761Y009616D01*
X003754Y009600D01*
X003744Y009586D01*
X003731Y009573D01*
X003717Y009563D01*
X003701Y009556D01*
X003684Y009552D01*
X003667Y009550D01*
X003517Y009550D01*
X003467Y009600D01*
X002067Y009600D01*
X002017Y009550D01*
X001667Y010600D02*
X001167Y010600D01*
X000917Y010850D01*
X000917Y011350D01*
X001167Y011600D01*
X000917Y011850D01*
X000917Y012350D01*
X001167Y012600D01*
X000917Y012850D01*
X000917Y013350D01*
X001167Y013600D01*
X000917Y013850D01*
X000917Y014350D01*
X001167Y014600D01*
X001667Y014600D01*
X001917Y014350D01*
X001917Y013850D01*
X001667Y013600D01*
X001917Y013350D01*
X001917Y012850D01*
X001667Y012600D01*
X001917Y012350D01*
X001917Y011850D01*
X001667Y011600D01*
X001917Y011350D01*
X001917Y010850D01*
X001667Y010600D01*
X003267Y015650D02*
X003767Y015650D01*
X004017Y015900D01*
X004267Y015650D01*
X004767Y015650D01*
X005017Y015900D01*
X005267Y015650D01*
X005767Y015650D01*
X006017Y015900D01*
X006267Y015650D01*
X006767Y015650D01*
X007017Y015900D01*
X007267Y015650D01*
X007767Y015650D01*
X008017Y015900D01*
X008267Y015650D01*
X008767Y015650D01*
X009017Y015900D01*
X009267Y015650D01*
X009767Y015650D01*
X010017Y015900D01*
X010267Y015650D01*
X010767Y015650D01*
X011017Y015900D01*
X011017Y016400D01*
X010767Y016650D01*
X010267Y016650D01*
X010017Y016400D01*
X009767Y016650D01*
X009267Y016650D01*
X009017Y016400D01*
X008767Y016650D01*
X008267Y016650D01*
X008017Y016400D01*
X007767Y016650D01*
X007267Y016650D01*
X007017Y016400D01*
X006767Y016650D01*
X006267Y016650D01*
X006017Y016400D01*
X005767Y016650D01*
X005267Y016650D01*
X005017Y016400D01*
X004767Y016650D01*
X004267Y016650D01*
X004017Y016400D01*
X003767Y016650D01*
X003267Y016650D01*
X003017Y016400D01*
X003017Y015900D01*
X003267Y015650D01*
X005117Y013500D02*
X005117Y013350D01*
X005167Y013300D01*
X005167Y011900D01*
X005117Y011850D01*
X005117Y011700D01*
X005119Y011683D01*
X005123Y011666D01*
X005130Y011650D01*
X005140Y011636D01*
X005153Y011623D01*
X005167Y011613D01*
X005183Y011606D01*
X005200Y011602D01*
X005217Y011600D01*
X005817Y011600D01*
X005834Y011602D01*
X005851Y011606D01*
X005867Y011613D01*
X005881Y011623D01*
X005894Y011636D01*
X005904Y011650D01*
X005911Y011666D01*
X005915Y011683D01*
X005917Y011700D01*
X005917Y011850D01*
X005867Y011900D01*
X005867Y013300D01*
X005917Y013350D01*
X005917Y013500D01*
X005915Y013517D01*
X005911Y013534D01*
X005904Y013550D01*
X005894Y013564D01*
X005881Y013577D01*
X005867Y013587D01*
X005851Y013594D01*
X005834Y013598D01*
X005817Y013600D01*
X005217Y013600D01*
X005200Y013598D01*
X005183Y013594D01*
X005167Y013587D01*
X005153Y013577D01*
X005140Y013564D01*
X005130Y013550D01*
X005123Y013534D01*
X005119Y013517D01*
X005117Y013500D01*
X006267Y013500D02*
X006267Y013350D01*
X006317Y013300D01*
X006317Y011900D01*
X006267Y011850D01*
X006267Y011700D01*
X006269Y011683D01*
X006273Y011666D01*
X006280Y011650D01*
X006290Y011636D01*
X006303Y011623D01*
X006317Y011613D01*
X006333Y011606D01*
X006350Y011602D01*
X006367Y011600D01*
X006967Y011600D01*
X006984Y011602D01*
X007001Y011606D01*
X007017Y011613D01*
X007031Y011623D01*
X007044Y011636D01*
X007054Y011650D01*
X007061Y011666D01*
X007065Y011683D01*
X007067Y011700D01*
X007067Y011850D01*
X007017Y011900D01*
X007017Y013300D01*
X007067Y013350D01*
X007067Y013500D01*
X007065Y013517D01*
X007061Y013534D01*
X007054Y013550D01*
X007044Y013564D01*
X007031Y013577D01*
X007017Y013587D01*
X007001Y013594D01*
X006984Y013598D01*
X006967Y013600D01*
X006367Y013600D01*
X006350Y013598D01*
X006333Y013594D01*
X006317Y013587D01*
X006303Y013577D01*
X006290Y013564D01*
X006280Y013550D01*
X006273Y013534D01*
X006269Y013517D01*
X006267Y013500D01*
X009867Y007050D02*
X009767Y006950D01*
X009767Y006850D01*
X009867Y007050D02*
X010667Y007050D01*
X010767Y006950D01*
X010767Y006850D01*
X010767Y006250D02*
X010767Y006150D01*
X010667Y006050D01*
X010767Y005950D01*
X010767Y005850D01*
X010767Y005250D02*
X010767Y005150D01*
X010667Y005050D01*
X009867Y005050D01*
X009767Y005150D01*
X009767Y005250D01*
X009867Y005050D02*
X009767Y004950D01*
X009767Y004850D01*
X009867Y005050D02*
X010667Y005050D01*
X010767Y004950D01*
X010767Y004850D01*
X010767Y004250D02*
X010767Y004150D01*
X010667Y004050D01*
X010767Y003950D01*
X010767Y003850D01*
X010767Y003250D02*
X010767Y003150D01*
X010667Y003050D01*
X009867Y003050D01*
X009767Y003150D01*
X009767Y003250D01*
X009767Y003850D02*
X009767Y003950D01*
X009867Y004050D01*
X009767Y004150D01*
X009767Y004250D01*
X009767Y005850D02*
X009767Y005950D01*
X009867Y006050D01*
X009767Y006150D01*
X009767Y006250D01*
D14*
X008867Y002575D02*
X008717Y002575D01*
X008642Y002500D01*
X008642Y002425D01*
X008717Y002350D01*
X008867Y002350D01*
X008942Y002275D01*
X008942Y002200D01*
X008867Y002125D01*
X008717Y002125D01*
X008642Y002200D01*
X008642Y002275D01*
X008717Y002350D01*
X008867Y002350D02*
X008942Y002425D01*
X008942Y002500D01*
X008867Y002575D01*
X004926Y006335D02*
X004926Y006965D01*
X003808Y006965D02*
X003808Y006335D01*
X002492Y007507D02*
X002492Y007734D01*
X002492Y007620D02*
X002152Y007620D01*
X002152Y007979D02*
X002492Y007979D01*
X002492Y007866D02*
X002492Y008093D01*
X001416Y010065D02*
X001416Y010365D01*
X001191Y010290D02*
X001416Y010065D01*
X001642Y010290D02*
X001191Y010290D01*
X001341Y014615D02*
X001191Y014765D01*
X001642Y014765D01*
X001642Y014615D02*
X001642Y014915D01*
X001817Y015100D02*
X002017Y015100D01*
X002017Y014850D01*
X003017Y014850D01*
X003017Y015100D01*
X003017Y015350D01*
X002017Y015350D01*
X002017Y015100D01*
X003017Y015100D02*
X003217Y015100D01*
X003342Y015025D02*
X003642Y015025D01*
X003492Y015025D02*
X003492Y015475D01*
X003342Y015325D01*
X010292Y016900D02*
X010292Y016975D01*
X010367Y017050D01*
X010517Y017050D01*
X010592Y016975D01*
X010592Y016900D01*
X010517Y016825D01*
X010367Y016825D01*
X010292Y016900D01*
X010367Y017050D02*
X010292Y017125D01*
X010292Y017200D01*
X010367Y017275D01*
X010517Y017275D01*
X010592Y017200D01*
X010592Y017125D01*
X010517Y017050D01*
X001842Y000775D02*
X001842Y000325D01*
X001692Y000325D02*
X001992Y000325D01*
X001692Y000625D02*
X001842Y000775D01*
D15*
X004367Y007158D02*
X004367Y007162D01*
D16*
X004760Y006798D03*
D17*
X003842Y009950D03*
X001692Y009950D03*
D18*
X006067Y004850D02*
X006067Y004550D01*
X006067Y004250D01*
X006267Y004250D02*
X006267Y004550D01*
X006267Y004850D01*
D19*
X006667Y011525D03*
X005517Y011525D03*
X005517Y013675D03*
X006667Y013675D03*
D20*
X001852Y007900D03*
D21*
X007722Y008183D02*
X007667Y008226D01*
X007703Y008275D01*
X007737Y008326D01*
X007766Y008380D01*
X007793Y008435D01*
X007817Y008491D01*
X007836Y008549D01*
X007853Y008608D01*
X007866Y008668D01*
X007875Y008728D01*
X007880Y008789D01*
X007882Y008851D01*
X007880Y008912D01*
X007875Y008973D01*
X007865Y009033D01*
X007852Y009093D01*
X007836Y009152D01*
X007816Y009210D01*
X007793Y009266D01*
X007766Y009321D01*
X007736Y009375D01*
X007703Y009426D01*
X007667Y009475D01*
X007627Y009522D01*
X007586Y009567D01*
X007541Y009609D01*
X007494Y009648D01*
X007445Y009684D01*
X007394Y009718D01*
X007340Y009748D01*
X007285Y009775D01*
X007229Y009798D01*
X007171Y009818D01*
X007191Y009885D01*
X007192Y009885D01*
X007253Y009864D01*
X007314Y009839D01*
X007373Y009810D01*
X007430Y009778D01*
X007484Y009742D01*
X007537Y009703D01*
X007587Y009661D01*
X007635Y009616D01*
X007680Y009569D01*
X007722Y009519D01*
X007760Y009466D01*
X007796Y009411D01*
X007828Y009354D01*
X007857Y009295D01*
X007882Y009235D01*
X007903Y009173D01*
X007920Y009110D01*
X007934Y009046D01*
X007944Y008981D01*
X007950Y008916D01*
X007952Y008850D01*
X007950Y008785D01*
X007944Y008720D01*
X007934Y008655D01*
X007921Y008591D01*
X007903Y008528D01*
X007882Y008466D01*
X007857Y008406D01*
X007828Y008347D01*
X007796Y008290D01*
X007761Y008235D01*
X007722Y008182D01*
X007715Y008188D01*
X007753Y008240D01*
X007789Y008295D01*
X007820Y008351D01*
X007849Y008410D01*
X007874Y008470D01*
X007895Y008531D01*
X007912Y008593D01*
X007926Y008657D01*
X007935Y008721D01*
X007941Y008786D01*
X007943Y008851D01*
X007941Y008915D01*
X007935Y008980D01*
X007925Y009044D01*
X007912Y009108D01*
X007894Y009170D01*
X007873Y009231D01*
X007848Y009291D01*
X007820Y009350D01*
X007788Y009406D01*
X007753Y009461D01*
X007715Y009513D01*
X007673Y009563D01*
X007629Y009610D01*
X007581Y009655D01*
X007532Y009696D01*
X007479Y009735D01*
X007425Y009770D01*
X007368Y009802D01*
X007310Y009830D01*
X007250Y009855D01*
X007189Y009877D01*
X007186Y009868D01*
X007247Y009847D01*
X007307Y009822D01*
X007364Y009794D01*
X007420Y009762D01*
X007474Y009727D01*
X007526Y009689D01*
X007575Y009648D01*
X007622Y009604D01*
X007666Y009557D01*
X007707Y009507D01*
X007746Y009456D01*
X007780Y009402D01*
X007812Y009345D01*
X007840Y009288D01*
X007865Y009228D01*
X007886Y009167D01*
X007903Y009105D01*
X007916Y009042D01*
X007926Y008979D01*
X007932Y008915D01*
X007934Y008851D01*
X007932Y008786D01*
X007926Y008722D01*
X007917Y008659D01*
X007903Y008596D01*
X007886Y008534D01*
X007865Y008473D01*
X007841Y008413D01*
X007812Y008355D01*
X007781Y008299D01*
X007746Y008245D01*
X007708Y008193D01*
X007701Y008199D01*
X007739Y008250D01*
X007773Y008304D01*
X007805Y008360D01*
X007832Y008417D01*
X007857Y008476D01*
X007877Y008536D01*
X007894Y008598D01*
X007908Y008660D01*
X007917Y008723D01*
X007923Y008787D01*
X007925Y008851D01*
X007923Y008914D01*
X007917Y008978D01*
X007908Y009041D01*
X007894Y009103D01*
X007877Y009165D01*
X007856Y009225D01*
X007832Y009284D01*
X007804Y009341D01*
X007773Y009397D01*
X007738Y009450D01*
X007700Y009502D01*
X007660Y009551D01*
X007616Y009597D01*
X007569Y009641D01*
X007521Y009682D01*
X007469Y009720D01*
X007416Y009755D01*
X007360Y009786D01*
X007303Y009814D01*
X007244Y009839D01*
X007184Y009859D01*
X007181Y009851D01*
X007241Y009830D01*
X007299Y009806D01*
X007356Y009778D01*
X007411Y009747D01*
X007464Y009712D01*
X007515Y009675D01*
X007564Y009634D01*
X007610Y009591D01*
X007653Y009545D01*
X007693Y009496D01*
X007731Y009445D01*
X007765Y009392D01*
X007796Y009337D01*
X007824Y009280D01*
X007848Y009222D01*
X007869Y009162D01*
X007886Y009101D01*
X007899Y009039D01*
X007908Y008977D01*
X007914Y008914D01*
X007916Y008851D01*
X007914Y008787D01*
X007908Y008724D01*
X007899Y008662D01*
X007886Y008600D01*
X007869Y008539D01*
X007848Y008479D01*
X007824Y008421D01*
X007797Y008364D01*
X007766Y008309D01*
X007731Y008256D01*
X007694Y008205D01*
X007687Y008210D01*
X007724Y008261D01*
X007758Y008313D01*
X007789Y008368D01*
X007816Y008424D01*
X007840Y008482D01*
X007860Y008542D01*
X007877Y008602D01*
X007890Y008663D01*
X007900Y008725D01*
X007905Y008788D01*
X007907Y008851D01*
X007905Y008913D01*
X007899Y008976D01*
X007890Y009038D01*
X007877Y009099D01*
X007860Y009159D01*
X007839Y009219D01*
X007816Y009277D01*
X007788Y009333D01*
X007757Y009388D01*
X007723Y009440D01*
X007686Y009491D01*
X007646Y009539D01*
X007603Y009585D01*
X007558Y009628D01*
X007509Y009668D01*
X007459Y009705D01*
X007406Y009739D01*
X007352Y009770D01*
X007296Y009798D01*
X007238Y009822D01*
X007178Y009842D01*
X007176Y009834D01*
X007234Y009813D01*
X007292Y009789D01*
X007348Y009762D01*
X007402Y009731D01*
X007454Y009698D01*
X007504Y009661D01*
X007552Y009621D01*
X007597Y009578D01*
X007639Y009533D01*
X007679Y009485D01*
X007716Y009435D01*
X007750Y009383D01*
X007780Y009329D01*
X007807Y009273D01*
X007831Y009215D01*
X007851Y009157D01*
X007868Y009097D01*
X007881Y009036D01*
X007890Y008975D01*
X007896Y008913D01*
X007898Y008851D01*
X007896Y008788D01*
X007891Y008727D01*
X007881Y008665D01*
X007868Y008604D01*
X007852Y008544D01*
X007831Y008486D01*
X007808Y008428D01*
X007781Y008372D01*
X007750Y008318D01*
X007717Y008266D01*
X007680Y008216D01*
X007673Y008221D01*
X007709Y008271D01*
X007742Y008323D01*
X007773Y008376D01*
X007800Y008432D01*
X007823Y008489D01*
X007843Y008547D01*
X007860Y008606D01*
X007872Y008667D01*
X007882Y008728D01*
X007887Y008789D01*
X007889Y008851D01*
X007887Y008912D01*
X007882Y008973D01*
X007872Y009034D01*
X007859Y009095D01*
X007843Y009154D01*
X007823Y009212D01*
X007799Y009269D01*
X007772Y009325D01*
X007742Y009378D01*
X007709Y009430D01*
X007672Y009480D01*
X007633Y009527D01*
X007590Y009572D01*
X007546Y009614D01*
X007498Y009654D01*
X007449Y009690D01*
X007397Y009724D01*
X007343Y009754D01*
X007288Y009781D01*
X007231Y009805D01*
X007173Y009825D01*
X006543Y009885D02*
X006563Y009818D01*
X006505Y009798D01*
X006449Y009775D01*
X006394Y009748D01*
X006341Y009718D01*
X006289Y009684D01*
X006240Y009648D01*
X006193Y009609D01*
X006149Y009567D01*
X006107Y009522D01*
X006067Y009475D01*
X006031Y009426D01*
X005998Y009375D01*
X005968Y009321D01*
X005941Y009266D01*
X005918Y009210D01*
X005898Y009152D01*
X005882Y009093D01*
X005869Y009033D01*
X005859Y008973D01*
X005854Y008912D01*
X005852Y008851D01*
X005854Y008789D01*
X005859Y008728D01*
X005868Y008668D01*
X005881Y008608D01*
X005898Y008549D01*
X005917Y008491D01*
X005941Y008435D01*
X005968Y008380D01*
X005997Y008326D01*
X006031Y008275D01*
X006067Y008226D01*
X006012Y008183D01*
X006012Y008182D01*
X005973Y008235D01*
X005938Y008290D01*
X005906Y008347D01*
X005877Y008406D01*
X005852Y008466D01*
X005831Y008528D01*
X005813Y008591D01*
X005800Y008655D01*
X005790Y008720D01*
X005784Y008785D01*
X005782Y008851D01*
X005784Y008916D01*
X005790Y008981D01*
X005800Y009046D01*
X005814Y009110D01*
X005831Y009173D01*
X005852Y009235D01*
X005877Y009295D01*
X005906Y009354D01*
X005938Y009411D01*
X005974Y009466D01*
X006012Y009519D01*
X006054Y009569D01*
X006099Y009616D01*
X006147Y009661D01*
X006197Y009703D01*
X006250Y009742D01*
X006304Y009778D01*
X006361Y009810D01*
X006420Y009839D01*
X006481Y009864D01*
X006542Y009885D01*
X006545Y009877D01*
X006484Y009855D01*
X006424Y009830D01*
X006366Y009802D01*
X006309Y009770D01*
X006255Y009735D01*
X006202Y009696D01*
X006153Y009655D01*
X006105Y009610D01*
X006061Y009563D01*
X006020Y009513D01*
X005981Y009461D01*
X005946Y009406D01*
X005914Y009350D01*
X005886Y009291D01*
X005861Y009231D01*
X005840Y009170D01*
X005822Y009108D01*
X005809Y009044D01*
X005799Y008980D01*
X005793Y008915D01*
X005791Y008851D01*
X005793Y008786D01*
X005799Y008721D01*
X005808Y008657D01*
X005822Y008593D01*
X005839Y008531D01*
X005860Y008470D01*
X005885Y008410D01*
X005914Y008351D01*
X005945Y008295D01*
X005980Y008240D01*
X006019Y008188D01*
X006026Y008193D01*
X005988Y008245D01*
X005953Y008299D01*
X005922Y008355D01*
X005893Y008413D01*
X005869Y008473D01*
X005848Y008534D01*
X005831Y008596D01*
X005817Y008659D01*
X005808Y008722D01*
X005802Y008786D01*
X005800Y008851D01*
X005802Y008915D01*
X005808Y008979D01*
X005818Y009042D01*
X005831Y009105D01*
X005848Y009167D01*
X005869Y009228D01*
X005894Y009288D01*
X005922Y009345D01*
X005954Y009402D01*
X005988Y009456D01*
X006027Y009507D01*
X006068Y009557D01*
X006112Y009604D01*
X006159Y009648D01*
X006208Y009689D01*
X006260Y009727D01*
X006314Y009762D01*
X006370Y009794D01*
X006427Y009822D01*
X006487Y009847D01*
X006548Y009868D01*
X006550Y009859D01*
X006490Y009839D01*
X006431Y009814D01*
X006374Y009786D01*
X006318Y009755D01*
X006265Y009720D01*
X006213Y009682D01*
X006165Y009641D01*
X006118Y009597D01*
X006074Y009551D01*
X006034Y009502D01*
X005996Y009450D01*
X005961Y009397D01*
X005930Y009341D01*
X005902Y009284D01*
X005878Y009225D01*
X005857Y009165D01*
X005840Y009103D01*
X005826Y009041D01*
X005817Y008978D01*
X005811Y008914D01*
X005809Y008851D01*
X005811Y008787D01*
X005817Y008723D01*
X005826Y008660D01*
X005839Y008598D01*
X005857Y008536D01*
X005877Y008476D01*
X005902Y008417D01*
X005929Y008360D01*
X005961Y008304D01*
X005995Y008250D01*
X006033Y008199D01*
X006040Y008205D01*
X006003Y008256D01*
X005968Y008309D01*
X005937Y008364D01*
X005910Y008421D01*
X005886Y008479D01*
X005865Y008539D01*
X005848Y008600D01*
X005835Y008662D01*
X005826Y008724D01*
X005820Y008787D01*
X005818Y008851D01*
X005820Y008914D01*
X005826Y008977D01*
X005835Y009039D01*
X005848Y009101D01*
X005865Y009162D01*
X005886Y009222D01*
X005910Y009280D01*
X005938Y009337D01*
X005969Y009392D01*
X006003Y009445D01*
X006041Y009496D01*
X006081Y009545D01*
X006124Y009591D01*
X006170Y009634D01*
X006219Y009675D01*
X006270Y009712D01*
X006323Y009747D01*
X006378Y009778D01*
X006435Y009806D01*
X006493Y009830D01*
X006553Y009851D01*
X006556Y009842D01*
X006496Y009822D01*
X006439Y009798D01*
X006382Y009770D01*
X006328Y009739D01*
X006275Y009705D01*
X006225Y009668D01*
X006176Y009628D01*
X006131Y009585D01*
X006088Y009539D01*
X006048Y009491D01*
X006011Y009440D01*
X005977Y009388D01*
X005946Y009333D01*
X005918Y009277D01*
X005895Y009219D01*
X005874Y009159D01*
X005857Y009099D01*
X005844Y009038D01*
X005835Y008976D01*
X005829Y008913D01*
X005827Y008851D01*
X005829Y008788D01*
X005834Y008725D01*
X005844Y008663D01*
X005857Y008602D01*
X005874Y008542D01*
X005894Y008482D01*
X005918Y008424D01*
X005945Y008368D01*
X005976Y008313D01*
X006010Y008261D01*
X006047Y008210D01*
X006054Y008216D01*
X006017Y008266D01*
X005984Y008318D01*
X005953Y008372D01*
X005926Y008428D01*
X005903Y008486D01*
X005882Y008544D01*
X005866Y008604D01*
X005853Y008665D01*
X005843Y008727D01*
X005838Y008788D01*
X005836Y008851D01*
X005838Y008913D01*
X005844Y008975D01*
X005853Y009036D01*
X005866Y009097D01*
X005883Y009157D01*
X005903Y009215D01*
X005927Y009273D01*
X005954Y009329D01*
X005984Y009383D01*
X006018Y009435D01*
X006055Y009485D01*
X006095Y009533D01*
X006137Y009578D01*
X006182Y009621D01*
X006230Y009661D01*
X006280Y009698D01*
X006332Y009731D01*
X006386Y009762D01*
X006442Y009789D01*
X006500Y009813D01*
X006558Y009834D01*
X006561Y009825D01*
X006503Y009805D01*
X006446Y009781D01*
X006391Y009754D01*
X006337Y009724D01*
X006285Y009690D01*
X006236Y009654D01*
X006188Y009614D01*
X006144Y009572D01*
X006101Y009527D01*
X006062Y009480D01*
X006026Y009430D01*
X005992Y009378D01*
X005962Y009325D01*
X005935Y009269D01*
X005911Y009212D01*
X005891Y009154D01*
X005875Y009095D01*
X005862Y009034D01*
X005852Y008974D01*
X005847Y008912D01*
X005845Y008851D01*
X005847Y008789D01*
X005852Y008728D01*
X005862Y008667D01*
X005874Y008606D01*
X005891Y008547D01*
X005911Y008489D01*
X005934Y008432D01*
X005961Y008376D01*
X005991Y008323D01*
X006025Y008271D01*
X006061Y008221D01*
X005882Y006226D02*
X005949Y006246D01*
X005969Y006188D01*
X005992Y006132D01*
X006019Y006077D01*
X006049Y006024D01*
X006083Y005972D01*
X006119Y005923D01*
X006158Y005876D01*
X006200Y005832D01*
X006245Y005790D01*
X006292Y005750D01*
X006341Y005714D01*
X006392Y005681D01*
X006446Y005651D01*
X006501Y005624D01*
X006557Y005601D01*
X006615Y005581D01*
X006674Y005565D01*
X006734Y005552D01*
X006794Y005542D01*
X006855Y005537D01*
X006916Y005535D01*
X006978Y005537D01*
X007039Y005542D01*
X007099Y005551D01*
X007159Y005564D01*
X007218Y005581D01*
X007276Y005600D01*
X007332Y005624D01*
X007387Y005651D01*
X007441Y005680D01*
X007492Y005714D01*
X007541Y005750D01*
X007584Y005695D01*
X007585Y005695D01*
X007532Y005656D01*
X007477Y005621D01*
X007420Y005589D01*
X007361Y005560D01*
X007301Y005535D01*
X007239Y005514D01*
X007176Y005496D01*
X007112Y005483D01*
X007047Y005473D01*
X006982Y005467D01*
X006916Y005465D01*
X006851Y005467D01*
X006786Y005473D01*
X006721Y005483D01*
X006657Y005497D01*
X006594Y005514D01*
X006532Y005535D01*
X006472Y005560D01*
X006413Y005589D01*
X006356Y005621D01*
X006301Y005657D01*
X006248Y005695D01*
X006198Y005737D01*
X006151Y005782D01*
X006106Y005830D01*
X006064Y005880D01*
X006025Y005933D01*
X005989Y005987D01*
X005957Y006044D01*
X005928Y006103D01*
X005903Y006164D01*
X005882Y006225D01*
X005890Y006228D01*
X005912Y006167D01*
X005937Y006107D01*
X005965Y006049D01*
X005997Y005992D01*
X006032Y005938D01*
X006071Y005885D01*
X006112Y005836D01*
X006157Y005788D01*
X006204Y005744D01*
X006254Y005703D01*
X006306Y005664D01*
X006361Y005629D01*
X006417Y005597D01*
X006476Y005569D01*
X006536Y005544D01*
X006597Y005523D01*
X006659Y005505D01*
X006723Y005492D01*
X006787Y005482D01*
X006852Y005476D01*
X006916Y005474D01*
X006981Y005476D01*
X007046Y005482D01*
X007110Y005491D01*
X007174Y005505D01*
X007236Y005522D01*
X007297Y005543D01*
X007357Y005568D01*
X007416Y005597D01*
X007472Y005628D01*
X007527Y005663D01*
X007579Y005702D01*
X007574Y005709D01*
X007522Y005671D01*
X007468Y005636D01*
X007412Y005605D01*
X007354Y005576D01*
X007294Y005552D01*
X007233Y005531D01*
X007171Y005514D01*
X007108Y005500D01*
X007045Y005491D01*
X006981Y005485D01*
X006916Y005483D01*
X006852Y005485D01*
X006788Y005491D01*
X006725Y005501D01*
X006662Y005514D01*
X006600Y005531D01*
X006539Y005552D01*
X006479Y005577D01*
X006422Y005605D01*
X006365Y005637D01*
X006311Y005671D01*
X006260Y005710D01*
X006210Y005751D01*
X006163Y005795D01*
X006119Y005842D01*
X006078Y005891D01*
X006040Y005943D01*
X006005Y005997D01*
X005973Y006053D01*
X005945Y006110D01*
X005920Y006170D01*
X005899Y006231D01*
X005908Y006233D01*
X005928Y006173D01*
X005953Y006114D01*
X005981Y006057D01*
X006012Y006001D01*
X006047Y005948D01*
X006085Y005896D01*
X006126Y005848D01*
X006170Y005801D01*
X006216Y005757D01*
X006265Y005717D01*
X006317Y005679D01*
X006370Y005644D01*
X006426Y005613D01*
X006483Y005585D01*
X006542Y005561D01*
X006602Y005540D01*
X006664Y005523D01*
X006726Y005509D01*
X006789Y005500D01*
X006853Y005494D01*
X006916Y005492D01*
X006980Y005494D01*
X007044Y005500D01*
X007107Y005509D01*
X007169Y005522D01*
X007231Y005540D01*
X007291Y005560D01*
X007350Y005585D01*
X007407Y005612D01*
X007463Y005644D01*
X007517Y005678D01*
X007568Y005716D01*
X007562Y005723D01*
X007511Y005686D01*
X007458Y005651D01*
X007403Y005620D01*
X007346Y005593D01*
X007288Y005569D01*
X007228Y005548D01*
X007167Y005531D01*
X007105Y005518D01*
X007043Y005509D01*
X006980Y005503D01*
X006916Y005501D01*
X006853Y005503D01*
X006790Y005509D01*
X006728Y005518D01*
X006666Y005531D01*
X006605Y005548D01*
X006545Y005569D01*
X006487Y005593D01*
X006430Y005621D01*
X006375Y005652D01*
X006322Y005686D01*
X006271Y005724D01*
X006222Y005764D01*
X006176Y005807D01*
X006133Y005853D01*
X006092Y005902D01*
X006055Y005953D01*
X006020Y006006D01*
X005989Y006061D01*
X005961Y006118D01*
X005937Y006176D01*
X005916Y006236D01*
X005925Y006239D01*
X005945Y006179D01*
X005969Y006122D01*
X005997Y006065D01*
X006028Y006011D01*
X006062Y005958D01*
X006099Y005908D01*
X006139Y005859D01*
X006182Y005814D01*
X006228Y005771D01*
X006276Y005731D01*
X006327Y005694D01*
X006379Y005660D01*
X006434Y005629D01*
X006490Y005601D01*
X006548Y005578D01*
X006608Y005557D01*
X006668Y005540D01*
X006729Y005527D01*
X006791Y005518D01*
X006854Y005512D01*
X006916Y005510D01*
X006979Y005512D01*
X007042Y005517D01*
X007104Y005527D01*
X007165Y005540D01*
X007225Y005557D01*
X007285Y005577D01*
X007343Y005601D01*
X007399Y005628D01*
X007454Y005659D01*
X007506Y005693D01*
X007557Y005730D01*
X007551Y005737D01*
X007501Y005700D01*
X007449Y005667D01*
X007395Y005636D01*
X007339Y005609D01*
X007281Y005586D01*
X007223Y005565D01*
X007163Y005549D01*
X007102Y005536D01*
X007040Y005526D01*
X006979Y005521D01*
X006916Y005519D01*
X006854Y005521D01*
X006792Y005527D01*
X006731Y005536D01*
X006670Y005549D01*
X006610Y005566D01*
X006552Y005586D01*
X006494Y005610D01*
X006438Y005637D01*
X006384Y005667D01*
X006332Y005701D01*
X006282Y005738D01*
X006234Y005778D01*
X006189Y005820D01*
X006146Y005865D01*
X006106Y005913D01*
X006069Y005963D01*
X006036Y006015D01*
X006005Y006069D01*
X005978Y006125D01*
X005954Y006183D01*
X005933Y006241D01*
X005942Y006244D01*
X005962Y006186D01*
X005986Y006129D01*
X006013Y006074D01*
X006043Y006020D01*
X006077Y005968D01*
X006113Y005919D01*
X006153Y005871D01*
X006195Y005827D01*
X006240Y005784D01*
X006287Y005745D01*
X006337Y005709D01*
X006389Y005675D01*
X006442Y005645D01*
X006498Y005618D01*
X006555Y005594D01*
X006613Y005574D01*
X006672Y005558D01*
X006733Y005545D01*
X006793Y005535D01*
X006855Y005530D01*
X006916Y005528D01*
X006978Y005530D01*
X007039Y005535D01*
X007100Y005545D01*
X007161Y005557D01*
X007220Y005574D01*
X007278Y005594D01*
X007335Y005617D01*
X007391Y005644D01*
X007444Y005674D01*
X007496Y005708D01*
X007546Y005744D01*
X007584Y007405D02*
X007541Y007350D01*
X007492Y007386D01*
X007441Y007420D01*
X007387Y007449D01*
X007332Y007476D01*
X007276Y007500D01*
X007218Y007519D01*
X007159Y007536D01*
X007099Y007549D01*
X007039Y007558D01*
X006978Y007563D01*
X006916Y007565D01*
X006855Y007563D01*
X006794Y007558D01*
X006734Y007548D01*
X006674Y007535D01*
X006615Y007519D01*
X006557Y007499D01*
X006501Y007476D01*
X006446Y007449D01*
X006392Y007419D01*
X006341Y007386D01*
X006292Y007350D01*
X006245Y007310D01*
X006200Y007269D01*
X006158Y007224D01*
X006119Y007177D01*
X006083Y007128D01*
X006049Y007077D01*
X006019Y007023D01*
X005992Y006968D01*
X005969Y006912D01*
X005949Y006854D01*
X005882Y006874D01*
X005882Y006875D01*
X005903Y006936D01*
X005928Y006997D01*
X005957Y007056D01*
X005989Y007113D01*
X006025Y007167D01*
X006064Y007220D01*
X006106Y007270D01*
X006151Y007318D01*
X006198Y007363D01*
X006248Y007405D01*
X006301Y007443D01*
X006356Y007479D01*
X006413Y007511D01*
X006472Y007540D01*
X006532Y007565D01*
X006594Y007586D01*
X006657Y007603D01*
X006721Y007617D01*
X006786Y007627D01*
X006851Y007633D01*
X006917Y007635D01*
X006982Y007633D01*
X007047Y007627D01*
X007112Y007617D01*
X007176Y007604D01*
X007239Y007586D01*
X007301Y007565D01*
X007361Y007540D01*
X007420Y007511D01*
X007477Y007479D01*
X007532Y007444D01*
X007585Y007405D01*
X007579Y007398D01*
X007527Y007436D01*
X007472Y007472D01*
X007416Y007503D01*
X007357Y007532D01*
X007297Y007557D01*
X007236Y007578D01*
X007174Y007595D01*
X007110Y007609D01*
X007046Y007618D01*
X006981Y007624D01*
X006916Y007626D01*
X006852Y007624D01*
X006787Y007618D01*
X006723Y007608D01*
X006659Y007595D01*
X006597Y007577D01*
X006536Y007556D01*
X006476Y007531D01*
X006417Y007503D01*
X006361Y007471D01*
X006306Y007436D01*
X006254Y007398D01*
X006204Y007356D01*
X006157Y007312D01*
X006112Y007264D01*
X006071Y007215D01*
X006032Y007162D01*
X005997Y007108D01*
X005965Y007051D01*
X005937Y006993D01*
X005912Y006933D01*
X005890Y006872D01*
X005899Y006869D01*
X005920Y006930D01*
X005945Y006990D01*
X005973Y007047D01*
X006005Y007103D01*
X006040Y007157D01*
X006078Y007209D01*
X006119Y007258D01*
X006163Y007305D01*
X006210Y007349D01*
X006260Y007390D01*
X006311Y007429D01*
X006365Y007463D01*
X006422Y007495D01*
X006479Y007523D01*
X006539Y007548D01*
X006600Y007569D01*
X006662Y007586D01*
X006725Y007599D01*
X006788Y007609D01*
X006852Y007615D01*
X006916Y007617D01*
X006981Y007615D01*
X007045Y007609D01*
X007108Y007600D01*
X007171Y007586D01*
X007233Y007569D01*
X007294Y007548D01*
X007354Y007524D01*
X007412Y007495D01*
X007468Y007464D01*
X007522Y007429D01*
X007574Y007391D01*
X007568Y007384D01*
X007517Y007422D01*
X007463Y007456D01*
X007407Y007488D01*
X007350Y007515D01*
X007291Y007540D01*
X007231Y007560D01*
X007169Y007577D01*
X007107Y007591D01*
X007044Y007600D01*
X006980Y007606D01*
X006916Y007608D01*
X006853Y007606D01*
X006789Y007600D01*
X006726Y007591D01*
X006664Y007577D01*
X006602Y007560D01*
X006542Y007539D01*
X006483Y007515D01*
X006426Y007487D01*
X006370Y007456D01*
X006317Y007421D01*
X006265Y007383D01*
X006216Y007343D01*
X006170Y007299D01*
X006126Y007252D01*
X006085Y007204D01*
X006047Y007152D01*
X006012Y007099D01*
X005981Y007043D01*
X005953Y006986D01*
X005928Y006927D01*
X005908Y006867D01*
X005916Y006864D01*
X005937Y006924D01*
X005961Y006982D01*
X005989Y007039D01*
X006020Y007094D01*
X006055Y007147D01*
X006092Y007198D01*
X006133Y007247D01*
X006176Y007293D01*
X006222Y007336D01*
X006271Y007376D01*
X006322Y007414D01*
X006375Y007448D01*
X006430Y007479D01*
X006487Y007507D01*
X006545Y007531D01*
X006605Y007552D01*
X006666Y007569D01*
X006728Y007582D01*
X006790Y007591D01*
X006853Y007597D01*
X006916Y007599D01*
X006980Y007597D01*
X007043Y007591D01*
X007105Y007582D01*
X007167Y007569D01*
X007228Y007552D01*
X007288Y007531D01*
X007346Y007507D01*
X007403Y007480D01*
X007458Y007449D01*
X007511Y007414D01*
X007562Y007377D01*
X007557Y007370D01*
X007506Y007407D01*
X007454Y007441D01*
X007399Y007472D01*
X007343Y007499D01*
X007285Y007523D01*
X007225Y007543D01*
X007165Y007560D01*
X007104Y007573D01*
X007042Y007583D01*
X006979Y007588D01*
X006916Y007590D01*
X006854Y007588D01*
X006791Y007582D01*
X006729Y007573D01*
X006668Y007560D01*
X006608Y007543D01*
X006548Y007522D01*
X006490Y007499D01*
X006434Y007471D01*
X006379Y007440D01*
X006327Y007406D01*
X006276Y007369D01*
X006228Y007329D01*
X006182Y007286D01*
X006139Y007241D01*
X006099Y007192D01*
X006062Y007142D01*
X006028Y007089D01*
X005997Y007035D01*
X005969Y006979D01*
X005945Y006921D01*
X005925Y006861D01*
X005933Y006859D01*
X005954Y006917D01*
X005978Y006975D01*
X006005Y007031D01*
X006036Y007085D01*
X006069Y007137D01*
X006106Y007187D01*
X006146Y007235D01*
X006189Y007280D01*
X006234Y007322D01*
X006282Y007362D01*
X006332Y007399D01*
X006384Y007433D01*
X006438Y007463D01*
X006494Y007490D01*
X006552Y007514D01*
X006610Y007534D01*
X006670Y007551D01*
X006731Y007564D01*
X006792Y007573D01*
X006854Y007579D01*
X006916Y007581D01*
X006979Y007579D01*
X007040Y007574D01*
X007102Y007564D01*
X007163Y007551D01*
X007223Y007535D01*
X007281Y007514D01*
X007339Y007491D01*
X007395Y007464D01*
X007449Y007433D01*
X007501Y007400D01*
X007551Y007363D01*
X007546Y007356D01*
X007496Y007392D01*
X007444Y007425D01*
X007391Y007456D01*
X007335Y007483D01*
X007278Y007506D01*
X007220Y007526D01*
X007161Y007543D01*
X007100Y007555D01*
X007039Y007565D01*
X006978Y007570D01*
X006916Y007572D01*
X006855Y007570D01*
X006794Y007565D01*
X006733Y007555D01*
X006672Y007542D01*
X006613Y007526D01*
X006555Y007506D01*
X006498Y007482D01*
X006442Y007455D01*
X006389Y007425D01*
X006337Y007392D01*
X006287Y007355D01*
X006240Y007316D01*
X006195Y007273D01*
X006153Y007229D01*
X006113Y007181D01*
X006077Y007132D01*
X006043Y007080D01*
X006013Y007026D01*
X005986Y006971D01*
X005962Y006914D01*
X005942Y006856D01*
D22*
X006042Y008200D02*
X007691Y008200D01*
X007754Y008750D02*
X007912Y008750D01*
X006979Y008750D02*
X006754Y008750D01*
X007017Y007595D02*
X007017Y007437D01*
X007567Y007375D02*
X007567Y005725D01*
X007017Y005663D02*
X007017Y005505D01*
X007017Y006437D02*
X007017Y006663D01*
X005979Y008750D02*
X005821Y008750D01*
M02*
