G75*
G70*
%OFA0B0*%
%FSLAX24Y24*%
%IPPOS*%
%LPD*%
%AMOC8*
5,1,8,0,0,1.08239X$1,22.5*
%
%ADD10C,0.0600*%
%ADD11OC8,0.0520*%
%ADD12OC8,0.0630*%
%ADD13C,0.0630*%
%ADD14C,0.0740*%
%ADD15C,0.0560*%
%ADD16C,0.0320*%
%ADD17C,0.0240*%
%ADD18C,0.0100*%
%ADD19R,0.0396X0.0396*%
D10*
X001867Y001150D02*
X001867Y001750D01*
X002867Y001750D02*
X002867Y001150D01*
X003867Y001150D02*
X003867Y001750D01*
X004867Y001750D02*
X004867Y001150D01*
X005867Y001150D02*
X005867Y001750D01*
X006867Y001750D02*
X006867Y001150D01*
X007867Y001150D02*
X007867Y001750D01*
X008867Y001750D02*
X008867Y001150D01*
X001717Y011100D02*
X001117Y011100D01*
X001117Y012100D02*
X001717Y012100D01*
X001717Y013100D02*
X001117Y013100D01*
X001117Y014100D02*
X001717Y014100D01*
X003517Y015850D02*
X003517Y016450D01*
X004517Y016450D02*
X004517Y015850D01*
X005517Y015850D02*
X005517Y016450D01*
X006517Y016450D02*
X006517Y015850D01*
X007517Y015850D02*
X007517Y016450D01*
X008517Y016450D02*
X008517Y015850D01*
X009517Y015850D02*
X009517Y016450D01*
X010517Y016450D02*
X010517Y015850D01*
D11*
X006667Y014100D03*
X005517Y014100D03*
X005517Y011100D03*
X006667Y011100D03*
X004267Y009950D03*
X001267Y009950D03*
X005667Y004550D03*
X006667Y004550D03*
D12*
X002267Y008900D03*
X001517Y015100D03*
X003517Y015100D03*
D13*
X001267Y008900D03*
D14*
X006167Y006550D03*
X006917Y006050D03*
X006917Y007050D03*
X007367Y008850D03*
X006867Y009600D03*
X006367Y008850D03*
D15*
X009987Y006550D02*
X010547Y006550D01*
X010547Y005550D02*
X009987Y005550D01*
X009987Y004550D02*
X010547Y004550D01*
X010547Y003550D02*
X009987Y003550D01*
D16*
X010267Y003550D02*
X008617Y004700D01*
X008617Y012700D01*
X007517Y014000D01*
X007517Y016150D01*
X008517Y016150D02*
X008517Y014250D01*
X009367Y013300D01*
X009367Y005150D01*
X010267Y004550D01*
X010267Y006550D02*
X010567Y006750D01*
X010567Y015550D01*
X010517Y016150D01*
X007867Y012050D02*
X007867Y009350D01*
X007367Y008850D01*
X006867Y009600D02*
X006667Y009950D01*
X006667Y011100D01*
X005517Y011100D02*
X005517Y007450D01*
X006167Y006550D01*
X006667Y005250D02*
X005267Y005250D01*
X003117Y007700D01*
X003067Y008900D01*
X002267Y008900D02*
X002267Y011100D01*
X001417Y011100D01*
X003467Y011100D01*
X004967Y012050D01*
X007867Y012050D01*
X006667Y014100D02*
X006517Y014650D01*
X006517Y016150D01*
X005517Y016150D02*
X005517Y014100D01*
X003517Y015100D02*
X003517Y016150D01*
X001267Y009950D02*
X001267Y008900D01*
X001267Y004550D01*
X005667Y004550D01*
X005667Y002700D01*
X005867Y002100D01*
X005867Y001450D01*
X006867Y002100D02*
X006667Y002700D01*
X006667Y004550D01*
X006667Y005250D01*
X006867Y002100D02*
X006867Y001450D01*
D17*
X006917Y007050D02*
X007867Y007700D01*
X007867Y009100D01*
X007367Y008850D01*
X004917Y008900D02*
X003067Y008900D01*
X002267Y008900D01*
D18*
X002297Y008917D02*
X005147Y008917D01*
X005147Y009015D02*
X002732Y009015D01*
X002732Y009093D02*
X002459Y009365D01*
X002297Y009365D01*
X002297Y008930D01*
X002732Y008930D01*
X002732Y009093D01*
X002711Y009114D02*
X005147Y009114D01*
X005147Y009212D02*
X002612Y009212D01*
X002514Y009311D02*
X005147Y009311D01*
X005147Y009409D02*
X001637Y009409D01*
X001637Y009311D02*
X002020Y009311D01*
X002074Y009365D02*
X001802Y009093D01*
X001802Y008930D01*
X002237Y008930D01*
X002237Y009365D01*
X002074Y009365D01*
X002237Y009311D02*
X002297Y009311D01*
X002297Y009212D02*
X002237Y009212D01*
X002237Y009114D02*
X002297Y009114D01*
X002297Y009015D02*
X002237Y009015D01*
X002237Y008930D02*
X002297Y008930D01*
X002297Y008870D01*
X002732Y008870D01*
X002732Y008707D01*
X002459Y008435D01*
X002297Y008435D01*
X002297Y008870D01*
X002237Y008870D01*
X002237Y008435D01*
X002074Y008435D01*
X001802Y008707D01*
X001802Y008870D01*
X002237Y008870D01*
X002237Y008930D01*
X002237Y008917D02*
X001792Y008917D01*
X001792Y009004D02*
X001792Y008796D01*
X001712Y008603D01*
X001637Y008528D01*
X001637Y004920D01*
X005372Y004920D01*
X005472Y005020D01*
X005861Y005020D01*
X006137Y004745D01*
X006137Y004355D01*
X006037Y004255D01*
X006037Y002760D01*
X006214Y002229D01*
X006237Y002174D01*
X006237Y002160D01*
X006241Y002147D01*
X006238Y002100D01*
X006299Y002039D01*
X006377Y001851D01*
X006377Y001049D01*
X006307Y000880D01*
X006507Y000880D01*
X006482Y000914D01*
X006450Y000977D01*
X006428Y001045D01*
X006417Y001115D01*
X006417Y001400D01*
X006817Y001400D01*
X006817Y001500D01*
X006817Y002198D01*
X006761Y002189D01*
X006694Y002167D01*
X006631Y002135D01*
X006574Y002093D01*
X006523Y002043D01*
X006482Y001986D01*
X006450Y001923D01*
X006347Y001923D01*
X006450Y001923D02*
X006428Y001855D01*
X006417Y001785D01*
X006417Y001500D01*
X006817Y001500D01*
X006917Y001500D01*
X007317Y001500D01*
X007317Y001785D01*
X007306Y001855D01*
X007284Y001923D01*
X007252Y001986D01*
X007210Y002043D01*
X007160Y002093D01*
X007103Y002135D01*
X007039Y002167D01*
X006972Y002189D01*
X006917Y002198D01*
X006917Y001500D01*
X006917Y001400D01*
X007317Y001400D01*
X007317Y001115D01*
X007306Y001045D01*
X007284Y000977D01*
X007252Y000914D01*
X007227Y000880D01*
X007426Y000880D01*
X007357Y001049D01*
X007357Y001851D01*
X007434Y002039D01*
X007578Y002182D01*
X007765Y002260D01*
X007968Y002260D01*
X008156Y002182D01*
X008299Y002039D01*
X008367Y001876D01*
X008434Y002039D01*
X008578Y002182D01*
X008765Y002260D01*
X008968Y002260D01*
X009156Y002182D01*
X009299Y002039D01*
X009377Y001851D01*
X009377Y001049D01*
X009307Y000880D01*
X010787Y000880D01*
X010787Y003119D01*
X010644Y003060D01*
X009889Y003060D01*
X009709Y003135D01*
X009571Y003272D01*
X009497Y003453D01*
X009497Y003636D01*
X008438Y004374D01*
X008407Y004386D01*
X008378Y004415D01*
X008345Y004439D01*
X008327Y004467D01*
X008303Y004490D01*
X008287Y004528D01*
X008265Y004563D01*
X008259Y004595D01*
X008247Y004626D01*
X008247Y004667D01*
X008239Y004707D01*
X008247Y004740D01*
X008247Y012564D01*
X007244Y013749D01*
X007203Y013790D01*
X007197Y013805D01*
X007187Y013817D01*
X007169Y013873D01*
X007147Y013926D01*
X007147Y013942D01*
X007142Y013957D01*
X007147Y014015D01*
X007147Y015499D01*
X007084Y015561D01*
X007017Y015724D01*
X006949Y015561D01*
X006887Y015499D01*
X006887Y014700D01*
X006945Y014487D01*
X007137Y014295D01*
X007137Y013905D01*
X006861Y013630D01*
X006472Y013630D01*
X006197Y013905D01*
X006197Y014295D01*
X006223Y014321D01*
X006166Y014530D01*
X006147Y014576D01*
X006147Y014600D01*
X006140Y014624D01*
X006147Y014673D01*
X006147Y015499D01*
X006084Y015561D01*
X006017Y015724D01*
X005949Y015561D01*
X005887Y015499D01*
X005887Y014395D01*
X005987Y014295D01*
X005987Y013905D01*
X005711Y013630D01*
X005322Y013630D01*
X005047Y013905D01*
X005047Y014295D01*
X005147Y014395D01*
X005147Y015499D01*
X005084Y015561D01*
X005017Y015724D01*
X004949Y015561D01*
X004806Y015418D01*
X004618Y015340D01*
X004415Y015340D01*
X004228Y015418D01*
X004084Y015561D01*
X004017Y015724D01*
X003949Y015561D01*
X003887Y015499D01*
X003887Y015472D01*
X004042Y015317D01*
X004042Y014883D01*
X003734Y014575D01*
X003299Y014575D01*
X002992Y014883D01*
X002992Y015317D01*
X003147Y015472D01*
X003147Y015499D01*
X003084Y015561D01*
X003007Y015749D01*
X003007Y016551D01*
X003035Y016620D01*
X000897Y016620D01*
X000897Y014561D01*
X001015Y014610D01*
X001264Y014610D01*
X000992Y014883D01*
X000992Y015317D01*
X001299Y015625D01*
X001734Y015625D01*
X002042Y015317D01*
X002042Y014883D01*
X001769Y014610D01*
X001818Y014610D01*
X002006Y014532D01*
X002149Y014389D01*
X002227Y014201D01*
X002227Y013999D01*
X002149Y013811D01*
X002006Y013668D01*
X001842Y013600D01*
X002006Y013532D01*
X002149Y013389D01*
X002227Y013201D01*
X002227Y012999D01*
X002149Y012811D01*
X002006Y012668D01*
X001842Y012600D01*
X002006Y012532D01*
X002149Y012389D01*
X002227Y012201D01*
X002227Y011999D01*
X002149Y011811D01*
X002006Y011668D01*
X001818Y011590D01*
X001015Y011590D01*
X000897Y011639D01*
X000897Y011493D01*
X000944Y011517D01*
X001011Y011539D01*
X001081Y011550D01*
X001367Y011550D01*
X001367Y011150D01*
X001467Y011150D01*
X002164Y011150D01*
X002156Y011205D01*
X002134Y011273D01*
X002102Y011336D01*
X002060Y011393D01*
X002010Y011443D01*
X001953Y011485D01*
X001889Y011517D01*
X001822Y011539D01*
X001752Y011550D01*
X001467Y011550D01*
X001467Y011150D01*
X001467Y011050D01*
X002164Y011050D01*
X002156Y010995D01*
X002134Y010927D01*
X002102Y010864D01*
X002060Y010807D01*
X002010Y010757D01*
X001953Y010715D01*
X001889Y010683D01*
X001822Y010661D01*
X001752Y010650D01*
X001467Y010650D01*
X001467Y011050D01*
X001367Y011050D01*
X001367Y010650D01*
X001081Y010650D01*
X001011Y010661D01*
X000944Y010683D01*
X000897Y010707D01*
X000897Y010245D01*
X001072Y010420D01*
X001461Y010420D01*
X001737Y010145D01*
X001737Y009755D01*
X001637Y009655D01*
X001637Y009272D01*
X001712Y009197D01*
X001792Y009004D01*
X001787Y009015D02*
X001802Y009015D01*
X001823Y009114D02*
X001746Y009114D01*
X001697Y009212D02*
X001921Y009212D01*
X001637Y009508D02*
X004044Y009508D01*
X004072Y009480D02*
X004461Y009480D01*
X004737Y009755D01*
X004737Y010145D01*
X004461Y010420D01*
X004072Y010420D01*
X003797Y010145D01*
X003797Y009755D01*
X004072Y009480D01*
X003946Y009606D02*
X001637Y009606D01*
X001686Y009705D02*
X003847Y009705D01*
X003797Y009803D02*
X001737Y009803D01*
X001737Y009902D02*
X003797Y009902D01*
X003797Y010000D02*
X001737Y010000D01*
X001737Y010099D02*
X003797Y010099D01*
X003849Y010197D02*
X001684Y010197D01*
X001586Y010296D02*
X003948Y010296D01*
X004046Y010394D02*
X001487Y010394D01*
X001467Y010690D02*
X001367Y010690D01*
X001367Y010788D02*
X001467Y010788D01*
X001467Y010887D02*
X001367Y010887D01*
X001367Y010985D02*
X001467Y010985D01*
X001467Y011084D02*
X005047Y011084D01*
X005047Y011182D02*
X002159Y011182D01*
X002130Y011281D02*
X005047Y011281D01*
X005047Y011295D02*
X005047Y010905D01*
X005147Y010805D01*
X005147Y007480D01*
X005140Y007436D01*
X005147Y007407D01*
X005147Y007376D01*
X005163Y007336D01*
X005174Y007293D01*
X005191Y007268D01*
X005203Y007240D01*
X005234Y007209D01*
X005601Y006701D01*
X005587Y006665D01*
X005587Y006435D01*
X005675Y006221D01*
X005838Y006058D01*
X006051Y005970D01*
X006282Y005970D01*
X006337Y005993D01*
X006337Y005935D01*
X006425Y005721D01*
X006588Y005558D01*
X006801Y005470D01*
X007032Y005470D01*
X007245Y005558D01*
X007408Y005721D01*
X007497Y005935D01*
X007497Y006165D01*
X007408Y006379D01*
X007245Y006542D01*
X007146Y006583D01*
X007189Y006605D01*
X007255Y006653D01*
X007313Y006711D01*
X007361Y006777D01*
X007399Y006850D01*
X007424Y006928D01*
X007437Y007009D01*
X007437Y007020D01*
X006947Y007020D01*
X006947Y007080D01*
X007437Y007080D01*
X007437Y007091D01*
X007424Y007172D01*
X007399Y007250D01*
X007361Y007323D01*
X007313Y007389D01*
X007255Y007447D01*
X007189Y007495D01*
X007116Y007532D01*
X007038Y007557D01*
X006958Y007570D01*
X006947Y007570D01*
X006947Y007080D01*
X006887Y007080D01*
X006887Y007570D01*
X006876Y007570D01*
X006795Y007557D01*
X006717Y007532D01*
X006644Y007495D01*
X006578Y007447D01*
X006520Y007389D01*
X006472Y007323D01*
X006435Y007250D01*
X006409Y007172D01*
X006397Y007091D01*
X006397Y007083D01*
X006282Y007130D01*
X006204Y007130D01*
X005887Y007570D01*
X005887Y008510D01*
X006038Y008358D01*
X006251Y008270D01*
X006482Y008270D01*
X006695Y008358D01*
X006858Y008521D01*
X006900Y008621D01*
X006900Y008621D01*
X006922Y008577D01*
X006970Y008511D01*
X007028Y008453D01*
X007094Y008405D01*
X007167Y008368D01*
X007245Y008343D01*
X007326Y008330D01*
X007337Y008330D01*
X007337Y008820D01*
X007397Y008820D01*
X007397Y008880D01*
X007887Y008880D01*
X007887Y008891D01*
X007874Y008972D01*
X007849Y009050D01*
X007811Y009123D01*
X007763Y009189D01*
X007705Y009247D01*
X007639Y009295D01*
X007566Y009332D01*
X007488Y009357D01*
X007408Y009370D01*
X007399Y009370D01*
X007447Y009485D01*
X007447Y009715D01*
X007358Y009929D01*
X007195Y010092D01*
X007037Y010157D01*
X007037Y010805D01*
X007137Y010905D01*
X007137Y011295D01*
X006861Y011570D01*
X006472Y011570D01*
X006197Y011295D01*
X006197Y010905D01*
X006297Y010805D01*
X006297Y010000D01*
X005887Y010000D01*
X005887Y009902D02*
X006297Y009902D01*
X006297Y009927D02*
X006297Y009876D01*
X006306Y009854D01*
X006309Y009830D01*
X006324Y009805D01*
X006287Y009715D01*
X006287Y009485D01*
X006309Y009430D01*
X006251Y009430D01*
X006038Y009342D01*
X005887Y009190D01*
X005887Y010805D01*
X005987Y010905D01*
X005987Y011295D01*
X005711Y011570D01*
X005322Y011570D01*
X005047Y011295D01*
X005131Y011379D02*
X002070Y011379D01*
X001963Y011478D02*
X005230Y011478D01*
X005047Y010985D02*
X002152Y010985D01*
X002113Y010887D02*
X005065Y010887D01*
X005147Y010788D02*
X002041Y010788D01*
X001902Y010690D02*
X005147Y010690D01*
X005147Y010591D02*
X000897Y010591D01*
X000897Y010493D02*
X005147Y010493D01*
X005147Y010394D02*
X004487Y010394D01*
X004586Y010296D02*
X005147Y010296D01*
X005147Y010197D02*
X004684Y010197D01*
X004737Y010099D02*
X005147Y010099D01*
X005147Y010000D02*
X004737Y010000D01*
X004737Y009902D02*
X005147Y009902D01*
X005147Y009803D02*
X004737Y009803D01*
X004686Y009705D02*
X005147Y009705D01*
X005147Y009606D02*
X004587Y009606D01*
X004489Y009508D02*
X005147Y009508D01*
X005147Y008818D02*
X002732Y008818D01*
X002732Y008720D02*
X005147Y008720D01*
X005147Y008621D02*
X002645Y008621D01*
X002547Y008523D02*
X005147Y008523D01*
X005147Y008424D02*
X001637Y008424D01*
X001637Y008326D02*
X005147Y008326D01*
X005147Y008227D02*
X001637Y008227D01*
X001637Y008129D02*
X005147Y008129D01*
X005147Y008030D02*
X001637Y008030D01*
X001637Y007932D02*
X005147Y007932D01*
X005147Y007833D02*
X001637Y007833D01*
X001637Y007735D02*
X005147Y007735D01*
X005147Y007636D02*
X001637Y007636D01*
X001637Y007538D02*
X005147Y007538D01*
X005140Y007439D02*
X001637Y007439D01*
X001637Y007341D02*
X005162Y007341D01*
X005202Y007242D02*
X001637Y007242D01*
X001637Y007144D02*
X005282Y007144D01*
X005353Y007045D02*
X001637Y007045D01*
X001637Y006947D02*
X005424Y006947D01*
X005495Y006848D02*
X001637Y006848D01*
X001637Y006750D02*
X005566Y006750D01*
X005587Y006651D02*
X001637Y006651D01*
X001637Y006553D02*
X005587Y006553D01*
X005587Y006454D02*
X001637Y006454D01*
X001637Y006356D02*
X005619Y006356D01*
X005660Y006257D02*
X001637Y006257D01*
X001637Y006159D02*
X005738Y006159D01*
X005836Y006060D02*
X001637Y006060D01*
X001637Y005962D02*
X006337Y005962D01*
X006366Y005863D02*
X001637Y005863D01*
X001637Y005765D02*
X006407Y005765D01*
X006480Y005666D02*
X001637Y005666D01*
X001637Y005568D02*
X006579Y005568D01*
X006637Y004960D02*
X006497Y004960D01*
X006257Y004720D01*
X006257Y004580D01*
X006637Y004580D01*
X006637Y004960D01*
X006697Y004960D02*
X006836Y004960D01*
X007077Y004720D01*
X007077Y004580D01*
X006697Y004580D01*
X006697Y004520D01*
X007077Y004520D01*
X007077Y004380D01*
X006836Y004140D01*
X006697Y004140D01*
X006697Y004520D01*
X006637Y004520D01*
X006637Y004140D01*
X006497Y004140D01*
X006257Y004380D01*
X006257Y004520D01*
X006637Y004520D01*
X006637Y004580D01*
X006697Y004580D01*
X006697Y004960D01*
X006697Y004878D02*
X006637Y004878D01*
X006637Y004780D02*
X006697Y004780D01*
X006697Y004681D02*
X006637Y004681D01*
X006637Y004583D02*
X006697Y004583D01*
X006697Y004484D02*
X006637Y004484D01*
X006637Y004386D02*
X006697Y004386D01*
X006697Y004287D02*
X006637Y004287D01*
X006637Y004189D02*
X006697Y004189D01*
X006885Y004189D02*
X008703Y004189D01*
X008562Y004287D02*
X006984Y004287D01*
X007077Y004386D02*
X008409Y004386D01*
X008309Y004484D02*
X007077Y004484D01*
X007077Y004583D02*
X008262Y004583D01*
X008244Y004681D02*
X007077Y004681D01*
X007017Y004780D02*
X008247Y004780D01*
X008247Y004878D02*
X006918Y004878D01*
X007254Y005568D02*
X008247Y005568D01*
X008247Y005666D02*
X007353Y005666D01*
X007426Y005765D02*
X008247Y005765D01*
X008247Y005863D02*
X007467Y005863D01*
X007497Y005962D02*
X008247Y005962D01*
X008247Y006060D02*
X007497Y006060D01*
X007497Y006159D02*
X008247Y006159D01*
X008247Y006257D02*
X007459Y006257D01*
X007418Y006356D02*
X008247Y006356D01*
X008247Y006454D02*
X007333Y006454D01*
X007219Y006553D02*
X008247Y006553D01*
X008247Y006651D02*
X007252Y006651D01*
X007341Y006750D02*
X008247Y006750D01*
X008247Y006848D02*
X007397Y006848D01*
X007427Y006947D02*
X008247Y006947D01*
X008247Y007045D02*
X006947Y007045D01*
X006947Y007144D02*
X006887Y007144D01*
X006887Y007242D02*
X006947Y007242D01*
X006947Y007341D02*
X006887Y007341D01*
X006887Y007439D02*
X006947Y007439D01*
X006947Y007538D02*
X006887Y007538D01*
X006734Y007538D02*
X005910Y007538D01*
X005887Y007636D02*
X008247Y007636D01*
X008247Y007538D02*
X007099Y007538D01*
X007263Y007439D02*
X008247Y007439D01*
X008247Y007341D02*
X007348Y007341D01*
X007401Y007242D02*
X008247Y007242D01*
X008247Y007144D02*
X007428Y007144D01*
X006570Y007439D02*
X005981Y007439D01*
X006052Y007341D02*
X006485Y007341D01*
X006432Y007242D02*
X006123Y007242D01*
X006194Y007144D02*
X006405Y007144D01*
X005887Y007735D02*
X008247Y007735D01*
X008247Y007833D02*
X005887Y007833D01*
X005887Y007932D02*
X008247Y007932D01*
X008247Y008030D02*
X005887Y008030D01*
X005887Y008129D02*
X008247Y008129D01*
X008247Y008227D02*
X005887Y008227D01*
X005887Y008326D02*
X006117Y008326D01*
X005972Y008424D02*
X005887Y008424D01*
X005887Y009212D02*
X005908Y009212D01*
X005887Y009311D02*
X006007Y009311D01*
X005887Y009409D02*
X006201Y009409D01*
X006287Y009508D02*
X005887Y009508D01*
X005887Y009606D02*
X006287Y009606D01*
X006287Y009705D02*
X005887Y009705D01*
X005887Y009803D02*
X006323Y009803D01*
X006297Y009927D02*
X006290Y009976D01*
X006297Y010000D01*
X006297Y010099D02*
X005887Y010099D01*
X005887Y010197D02*
X006297Y010197D01*
X006297Y010296D02*
X005887Y010296D01*
X005887Y010394D02*
X006297Y010394D01*
X006297Y010493D02*
X005887Y010493D01*
X005887Y010591D02*
X006297Y010591D01*
X006297Y010690D02*
X005887Y010690D01*
X005887Y010788D02*
X006297Y010788D01*
X006215Y010887D02*
X005968Y010887D01*
X005987Y010985D02*
X006197Y010985D01*
X006197Y011084D02*
X005987Y011084D01*
X005987Y011182D02*
X006197Y011182D01*
X006197Y011281D02*
X005987Y011281D01*
X005902Y011379D02*
X006281Y011379D01*
X006380Y011478D02*
X005804Y011478D01*
X006954Y011478D02*
X008247Y011478D01*
X008247Y011576D02*
X000897Y011576D01*
X001367Y011478D02*
X001467Y011478D01*
X001467Y011379D02*
X001367Y011379D01*
X001367Y011281D02*
X001467Y011281D01*
X001467Y011182D02*
X001367Y011182D01*
X000931Y010690D02*
X000897Y010690D01*
X000897Y010394D02*
X001046Y010394D01*
X000948Y010296D02*
X000897Y010296D01*
X001792Y008818D02*
X001802Y008818D01*
X001802Y008720D02*
X001760Y008720D01*
X001719Y008621D02*
X001888Y008621D01*
X001987Y008523D02*
X001637Y008523D01*
X002237Y008523D02*
X002297Y008523D01*
X002297Y008621D02*
X002237Y008621D01*
X002237Y008720D02*
X002297Y008720D01*
X002297Y008818D02*
X002237Y008818D01*
X002012Y011675D02*
X008247Y011675D01*
X008247Y011773D02*
X002111Y011773D01*
X002174Y011872D02*
X008247Y011872D01*
X008247Y011970D02*
X002215Y011970D01*
X002227Y012069D02*
X008247Y012069D01*
X008247Y012167D02*
X002227Y012167D01*
X002200Y012266D02*
X008247Y012266D01*
X008247Y012364D02*
X002159Y012364D01*
X002075Y012463D02*
X008247Y012463D01*
X008247Y012561D02*
X001936Y012561D01*
X001986Y012660D02*
X008166Y012660D01*
X008083Y012758D02*
X002096Y012758D01*
X002168Y012857D02*
X008000Y012857D01*
X007916Y012955D02*
X002209Y012955D01*
X002227Y013054D02*
X007833Y013054D01*
X007749Y013152D02*
X002227Y013152D01*
X002206Y013251D02*
X007666Y013251D01*
X007583Y013349D02*
X002166Y013349D01*
X002090Y013448D02*
X007499Y013448D01*
X007416Y013546D02*
X001973Y013546D01*
X001950Y013645D02*
X005307Y013645D01*
X005209Y013743D02*
X002081Y013743D01*
X002162Y013842D02*
X005110Y013842D01*
X005047Y013940D02*
X002202Y013940D01*
X002227Y014039D02*
X005047Y014039D01*
X005047Y014137D02*
X002227Y014137D01*
X002213Y014236D02*
X005047Y014236D01*
X005086Y014334D02*
X002172Y014334D01*
X002105Y014433D02*
X005147Y014433D01*
X005147Y014531D02*
X002007Y014531D01*
X001887Y014728D02*
X003146Y014728D01*
X003048Y014827D02*
X001986Y014827D01*
X002042Y014925D02*
X002992Y014925D01*
X002992Y015024D02*
X002042Y015024D01*
X002042Y015122D02*
X002992Y015122D01*
X002992Y015221D02*
X002042Y015221D01*
X002040Y015319D02*
X002993Y015319D01*
X003092Y015418D02*
X001942Y015418D01*
X001843Y015516D02*
X003129Y015516D01*
X003062Y015615D02*
X001745Y015615D01*
X001289Y015615D02*
X000897Y015615D01*
X000897Y015713D02*
X003021Y015713D01*
X003007Y015812D02*
X000897Y015812D01*
X000897Y015910D02*
X003007Y015910D01*
X003007Y016009D02*
X000897Y016009D01*
X000897Y016107D02*
X003007Y016107D01*
X003007Y016206D02*
X000897Y016206D01*
X000897Y016304D02*
X003007Y016304D01*
X003007Y016403D02*
X000897Y016403D01*
X000897Y016501D02*
X003007Y016501D01*
X003027Y016600D02*
X000897Y016600D01*
X000897Y015516D02*
X001190Y015516D01*
X001092Y015418D02*
X000897Y015418D01*
X000897Y015319D02*
X000993Y015319D01*
X000992Y015221D02*
X000897Y015221D01*
X000897Y015122D02*
X000992Y015122D01*
X000992Y015024D02*
X000897Y015024D01*
X000897Y014925D02*
X000992Y014925D01*
X001048Y014827D02*
X000897Y014827D01*
X000897Y014728D02*
X001146Y014728D01*
X001245Y014630D02*
X000897Y014630D01*
X001789Y014630D02*
X003245Y014630D01*
X003789Y014630D02*
X005147Y014630D01*
X005147Y014728D02*
X003887Y014728D01*
X003986Y014827D02*
X005147Y014827D01*
X005147Y014925D02*
X004042Y014925D01*
X004042Y015024D02*
X005147Y015024D01*
X005147Y015122D02*
X004042Y015122D01*
X004042Y015221D02*
X005147Y015221D01*
X005147Y015319D02*
X004040Y015319D01*
X003942Y015418D02*
X004228Y015418D01*
X004129Y015516D02*
X003904Y015516D01*
X003971Y015615D02*
X004062Y015615D01*
X004021Y015713D02*
X004012Y015713D01*
X004805Y015418D02*
X005147Y015418D01*
X005129Y015516D02*
X004904Y015516D01*
X004971Y015615D02*
X005062Y015615D01*
X005021Y015713D02*
X005012Y015713D01*
X005904Y015516D02*
X006129Y015516D01*
X006147Y015418D02*
X005887Y015418D01*
X005887Y015319D02*
X006147Y015319D01*
X006147Y015221D02*
X005887Y015221D01*
X005887Y015122D02*
X006147Y015122D01*
X006147Y015024D02*
X005887Y015024D01*
X005887Y014925D02*
X006147Y014925D01*
X006147Y014827D02*
X005887Y014827D01*
X005887Y014728D02*
X006147Y014728D01*
X006141Y014630D02*
X005887Y014630D01*
X005887Y014531D02*
X006165Y014531D01*
X006192Y014433D02*
X005887Y014433D01*
X005947Y014334D02*
X006219Y014334D01*
X006197Y014236D02*
X005987Y014236D01*
X005987Y014137D02*
X006197Y014137D01*
X006197Y014039D02*
X005987Y014039D01*
X005987Y013940D02*
X006197Y013940D01*
X006260Y013842D02*
X005923Y013842D01*
X005824Y013743D02*
X006359Y013743D01*
X006457Y013645D02*
X005726Y013645D01*
X006876Y013645D02*
X007333Y013645D01*
X007249Y013743D02*
X006974Y013743D01*
X007073Y013842D02*
X007179Y013842D01*
X007147Y013940D02*
X007137Y013940D01*
X007137Y014039D02*
X007147Y014039D01*
X007137Y014137D02*
X007147Y014137D01*
X007137Y014236D02*
X007147Y014236D01*
X007147Y014334D02*
X007097Y014334D01*
X007147Y014433D02*
X006999Y014433D01*
X006933Y014531D02*
X007147Y014531D01*
X007147Y014630D02*
X006906Y014630D01*
X006887Y014728D02*
X007147Y014728D01*
X007147Y014827D02*
X006887Y014827D01*
X006887Y014925D02*
X007147Y014925D01*
X007147Y015024D02*
X006887Y015024D01*
X006887Y015122D02*
X007147Y015122D01*
X007147Y015221D02*
X006887Y015221D01*
X006887Y015319D02*
X007147Y015319D01*
X007147Y015418D02*
X006887Y015418D01*
X006904Y015516D02*
X007129Y015516D01*
X007062Y015615D02*
X006971Y015615D01*
X007012Y015713D02*
X007021Y015713D01*
X006062Y015615D02*
X005971Y015615D01*
X006012Y015713D02*
X006021Y015713D01*
X007052Y011379D02*
X008247Y011379D01*
X008247Y011281D02*
X007137Y011281D01*
X007137Y011182D02*
X008247Y011182D01*
X008247Y011084D02*
X007137Y011084D01*
X007137Y010985D02*
X008247Y010985D01*
X008247Y010887D02*
X007118Y010887D01*
X007037Y010788D02*
X008247Y010788D01*
X008247Y010690D02*
X007037Y010690D01*
X007037Y010591D02*
X008247Y010591D01*
X008247Y010493D02*
X007037Y010493D01*
X007037Y010394D02*
X008247Y010394D01*
X008247Y010296D02*
X007037Y010296D01*
X007037Y010197D02*
X008247Y010197D01*
X008247Y010099D02*
X007179Y010099D01*
X007287Y010000D02*
X008247Y010000D01*
X008247Y009902D02*
X007370Y009902D01*
X007410Y009803D02*
X008247Y009803D01*
X008247Y009705D02*
X007447Y009705D01*
X007447Y009606D02*
X008247Y009606D01*
X008247Y009508D02*
X007447Y009508D01*
X007415Y009409D02*
X008247Y009409D01*
X008247Y009311D02*
X007608Y009311D01*
X007740Y009212D02*
X008247Y009212D01*
X008247Y009114D02*
X007816Y009114D01*
X007860Y009015D02*
X008247Y009015D01*
X008247Y008917D02*
X007883Y008917D01*
X007887Y008820D02*
X007397Y008820D01*
X007397Y008330D01*
X007408Y008330D01*
X007488Y008343D01*
X007566Y008368D01*
X007639Y008405D01*
X007705Y008453D01*
X007763Y008511D01*
X007811Y008577D01*
X007849Y008650D01*
X007874Y008728D01*
X007887Y008809D01*
X007887Y008820D01*
X007887Y008818D02*
X008247Y008818D01*
X008247Y008720D02*
X007871Y008720D01*
X007834Y008621D02*
X008247Y008621D01*
X008247Y008523D02*
X007771Y008523D01*
X007665Y008424D02*
X008247Y008424D01*
X008247Y008326D02*
X006616Y008326D01*
X006761Y008424D02*
X007068Y008424D01*
X006962Y008523D02*
X006859Y008523D01*
X007337Y008523D02*
X007397Y008523D01*
X007397Y008621D02*
X007337Y008621D01*
X007337Y008720D02*
X007397Y008720D01*
X007397Y008818D02*
X007337Y008818D01*
X007337Y008424D02*
X007397Y008424D01*
X008247Y005469D02*
X001637Y005469D01*
X001637Y005371D02*
X008247Y005371D01*
X008247Y005272D02*
X001637Y005272D01*
X001637Y005174D02*
X008247Y005174D01*
X008247Y005075D02*
X001637Y005075D01*
X001637Y004977D02*
X005429Y004977D01*
X005905Y004977D02*
X008247Y004977D01*
X008845Y004090D02*
X006037Y004090D01*
X006037Y003992D02*
X008986Y003992D01*
X009127Y003893D02*
X006037Y003893D01*
X006037Y003795D02*
X009269Y003795D01*
X009410Y003696D02*
X006037Y003696D01*
X006037Y003598D02*
X009497Y003598D01*
X009497Y003499D02*
X006037Y003499D01*
X006037Y003401D02*
X009518Y003401D01*
X009559Y003302D02*
X006037Y003302D01*
X006037Y003204D02*
X009640Y003204D01*
X009781Y003105D02*
X006037Y003105D01*
X006037Y003007D02*
X010787Y003007D01*
X010787Y003105D02*
X010753Y003105D01*
X010787Y002908D02*
X006037Y002908D01*
X006037Y002810D02*
X010787Y002810D01*
X010787Y002711D02*
X006053Y002711D01*
X006086Y002613D02*
X010787Y002613D01*
X010787Y002514D02*
X006119Y002514D01*
X006152Y002416D02*
X010787Y002416D01*
X010787Y002317D02*
X006184Y002317D01*
X006218Y002219D02*
X007665Y002219D01*
X007515Y002120D02*
X007123Y002120D01*
X007226Y002022D02*
X007427Y002022D01*
X007386Y001923D02*
X007284Y001923D01*
X007310Y001825D02*
X007357Y001825D01*
X007357Y001726D02*
X007317Y001726D01*
X007317Y001628D02*
X007357Y001628D01*
X007357Y001529D02*
X007317Y001529D01*
X007357Y001431D02*
X006917Y001431D01*
X006917Y001529D02*
X006817Y001529D01*
X006817Y001431D02*
X006377Y001431D01*
X006377Y001529D02*
X006417Y001529D01*
X006417Y001628D02*
X006377Y001628D01*
X006377Y001726D02*
X006417Y001726D01*
X006423Y001825D02*
X006377Y001825D01*
X006306Y002022D02*
X006508Y002022D01*
X006610Y002120D02*
X006239Y002120D01*
X006817Y002120D02*
X006917Y002120D01*
X006917Y002022D02*
X006817Y002022D01*
X006817Y001923D02*
X006917Y001923D01*
X006917Y001825D02*
X006817Y001825D01*
X006817Y001726D02*
X006917Y001726D01*
X006917Y001628D02*
X006817Y001628D01*
X006417Y001332D02*
X006377Y001332D01*
X006377Y001234D02*
X006417Y001234D01*
X006417Y001135D02*
X006377Y001135D01*
X006372Y001037D02*
X006430Y001037D01*
X006470Y000938D02*
X006331Y000938D01*
X007264Y000938D02*
X007402Y000938D01*
X007362Y001037D02*
X007303Y001037D01*
X007317Y001135D02*
X007357Y001135D01*
X007357Y001234D02*
X007317Y001234D01*
X007317Y001332D02*
X007357Y001332D01*
X008068Y002219D02*
X008665Y002219D01*
X008515Y002120D02*
X008218Y002120D01*
X008306Y002022D02*
X008427Y002022D01*
X008386Y001923D02*
X008347Y001923D01*
X009068Y002219D02*
X010787Y002219D01*
X010787Y002120D02*
X009218Y002120D01*
X009306Y002022D02*
X010787Y002022D01*
X010787Y001923D02*
X009347Y001923D01*
X009377Y001825D02*
X010787Y001825D01*
X010787Y001726D02*
X009377Y001726D01*
X009377Y001628D02*
X010787Y001628D01*
X010787Y001529D02*
X009377Y001529D01*
X009377Y001431D02*
X010787Y001431D01*
X010787Y001332D02*
X009377Y001332D01*
X009377Y001234D02*
X010787Y001234D01*
X010787Y001135D02*
X009377Y001135D01*
X009372Y001037D02*
X010787Y001037D01*
X010787Y000938D02*
X009331Y000938D01*
X006448Y004189D02*
X006037Y004189D01*
X006068Y004287D02*
X006350Y004287D01*
X006257Y004386D02*
X006137Y004386D01*
X006137Y004484D02*
X006257Y004484D01*
X006257Y004583D02*
X006137Y004583D01*
X006137Y004681D02*
X006257Y004681D01*
X006316Y004780D02*
X006102Y004780D01*
X006003Y004878D02*
X006415Y004878D01*
D19*
X004917Y008900D03*
M02*
