G75*
G70*
%OFA0B0*%
%FSLAX24Y24*%
%IPPOS*%
%LPD*%
%AMOC8*
5,1,8,0,0,1.08239X$1,22.5*
%
%ADD10C,0.0160*%
%ADD11C,0.0600*%
%ADD12R,0.0630X0.0236*%
%ADD13R,0.0272X0.0390*%
%ADD14OC8,0.0520*%
%ADD15OC8,0.0630*%
%ADD16C,0.0630*%
%ADD17C,0.0740*%
%ADD18C,0.0560*%
%ADD19C,0.1000*%
%ADD20C,0.0240*%
%ADD21C,0.0320*%
%ADD22R,0.0396X0.0396*%
%ADD23C,0.0100*%
D10*
X000367Y000350D02*
X000367Y017150D01*
X011317Y017150D01*
X011317Y000350D01*
X000367Y000350D01*
D11*
X001867Y001150D02*
X001867Y001750D01*
X002867Y001750D02*
X002867Y001150D01*
X003867Y001150D02*
X003867Y001750D01*
X004867Y001750D02*
X004867Y001150D01*
X005867Y001150D02*
X005867Y001750D01*
X006867Y001750D02*
X006867Y001150D01*
X007867Y001150D02*
X007867Y001750D01*
X008867Y001750D02*
X008867Y001150D01*
X001717Y011100D02*
X001117Y011100D01*
X001117Y012100D02*
X001717Y012100D01*
X001717Y013100D02*
X001117Y013100D01*
X001117Y014100D02*
X001717Y014100D01*
X003517Y015850D02*
X003517Y016450D01*
X004517Y016450D02*
X004517Y015850D01*
X005517Y015850D02*
X005517Y016450D01*
X006517Y016450D02*
X006517Y015850D01*
X007517Y015850D02*
X007517Y016450D01*
X008517Y016450D02*
X008517Y015850D01*
X009517Y015850D02*
X009517Y016450D01*
X010517Y016450D02*
X010517Y015850D01*
D12*
X004462Y005046D03*
X004462Y004546D03*
X004462Y004046D03*
X004462Y003550D03*
X002372Y003550D03*
X002372Y004050D03*
X002372Y004550D03*
X002372Y005050D03*
D13*
X003993Y006138D03*
X003993Y007158D03*
X004367Y007158D03*
X004741Y007158D03*
X004741Y006138D03*
D14*
X005667Y004550D03*
X006667Y004550D03*
X004267Y009950D03*
X005517Y011100D03*
X006667Y011100D03*
X006667Y014100D03*
X005517Y014100D03*
X001267Y009950D03*
D15*
X002267Y008900D03*
X001517Y015100D03*
X003517Y015100D03*
D16*
X001267Y008900D03*
D17*
X006167Y006550D03*
X006917Y006050D03*
X006917Y007050D03*
X007367Y008850D03*
X006867Y009600D03*
X006367Y008850D03*
D18*
X009987Y006550D02*
X010547Y006550D01*
X010547Y005550D02*
X009987Y005550D01*
X009987Y004550D02*
X010547Y004550D01*
X010547Y003550D02*
X009987Y003550D01*
D19*
X004417Y011850D03*
X003517Y013150D03*
D20*
X004917Y008900D02*
X004367Y008550D01*
X004367Y007100D01*
X004767Y007000D02*
X005217Y006250D01*
X005217Y004550D01*
X004217Y004550D01*
X004117Y004050D02*
X003717Y003800D01*
X003717Y002000D01*
X003867Y001450D01*
X002867Y001450D02*
X003067Y002050D01*
X003067Y003800D01*
X002617Y004050D01*
X002467Y003550D02*
X001867Y002800D01*
X001867Y001450D01*
X001417Y004550D02*
X003417Y004550D01*
X004417Y003550D02*
X004867Y002800D01*
X004867Y001450D01*
X005217Y004550D02*
X005667Y004550D01*
D21*
X004617Y005200D02*
X004617Y006050D01*
X004317Y006650D01*
X003517Y006650D01*
X003517Y008600D01*
X004267Y009050D01*
X004267Y009950D01*
X004267Y011250D01*
X004417Y011850D01*
X004517Y012850D01*
X004517Y016150D01*
X003517Y015100D02*
X003517Y013150D01*
X003517Y009300D01*
X002967Y009000D01*
X002967Y006000D01*
X002967Y005150D01*
X002217Y005150D01*
X002967Y006000D02*
X003967Y006000D01*
X001417Y004550D02*
X002267Y008900D01*
X002617Y009950D02*
X001267Y009950D01*
X002617Y009950D02*
X002617Y014100D01*
X002617Y015100D01*
X001517Y015100D01*
X001417Y014100D02*
X002617Y014100D01*
X006367Y008850D02*
X006367Y008300D01*
X008617Y007350D01*
X008617Y002150D01*
X008867Y001450D01*
X007867Y001450D02*
X007867Y004850D01*
X006917Y006050D01*
X009367Y006100D02*
X009367Y007150D01*
X009867Y007600D01*
X009867Y015400D01*
X009517Y016150D01*
X009367Y006100D02*
X010267Y005550D01*
D22*
X004917Y008900D03*
D23*
X004577Y008988D02*
X004562Y008953D01*
X004552Y008915D01*
X004538Y008896D01*
X004529Y008874D01*
X004502Y008847D01*
X004479Y008816D01*
X004459Y008804D01*
X004442Y008787D01*
X004406Y008772D01*
X003827Y008424D01*
X006057Y008424D01*
X006057Y008425D02*
X006057Y008301D01*
X006056Y008240D01*
X006057Y008239D01*
X006057Y008238D01*
X006080Y008182D01*
X006103Y008126D01*
X006103Y008125D01*
X006104Y008124D01*
X006147Y008082D01*
X006189Y008038D01*
X006190Y008038D01*
X006191Y008037D01*
X006247Y008014D01*
X008307Y007144D01*
X008307Y002158D01*
X008304Y002104D01*
X008307Y002096D01*
X008307Y002088D01*
X008327Y002038D01*
X008417Y001788D01*
X008417Y001060D01*
X008485Y000895D01*
X008500Y000880D01*
X008233Y000880D01*
X008248Y000895D01*
X008317Y001060D01*
X008317Y001840D01*
X008248Y002005D01*
X008177Y002076D01*
X008177Y004832D01*
X008182Y004875D01*
X008177Y004893D01*
X008177Y004912D01*
X008160Y004952D01*
X008148Y004994D01*
X008137Y005009D01*
X008129Y005026D01*
X008099Y005056D01*
X007422Y005911D01*
X007437Y005947D01*
X007437Y006153D01*
X007358Y006345D01*
X007211Y006491D01*
X007065Y006551D01*
X007116Y006568D01*
X007189Y006605D01*
X007255Y006653D01*
X007313Y006711D01*
X007361Y006777D01*
X007399Y006850D01*
X007424Y006928D01*
X007437Y007009D01*
X007437Y007020D01*
X006947Y007020D01*
X006947Y007080D01*
X007437Y007080D01*
X007437Y007091D01*
X007424Y007172D01*
X007399Y007250D01*
X007361Y007323D01*
X007313Y007389D01*
X007255Y007447D01*
X007189Y007495D01*
X007116Y007532D01*
X007038Y007557D01*
X006958Y007570D01*
X006947Y007570D01*
X006947Y007080D01*
X006887Y007080D01*
X006887Y007570D01*
X006876Y007570D01*
X006795Y007557D01*
X006717Y007532D01*
X006644Y007495D01*
X006578Y007447D01*
X006520Y007389D01*
X006472Y007323D01*
X006435Y007250D01*
X006409Y007172D01*
X006397Y007091D01*
X006397Y007080D01*
X006887Y007080D01*
X006887Y007020D01*
X006397Y007020D01*
X006397Y007018D01*
X006270Y007070D01*
X006063Y007070D01*
X005872Y006991D01*
X005726Y006845D01*
X005647Y006653D01*
X005647Y006447D01*
X005726Y006255D01*
X005872Y006109D01*
X006063Y006030D01*
X006270Y006030D01*
X006397Y006082D01*
X006397Y005947D01*
X006476Y005755D01*
X006622Y005609D01*
X006813Y005530D01*
X006933Y005530D01*
X007557Y004742D01*
X007557Y002076D01*
X007485Y002005D01*
X007417Y001840D01*
X007417Y001060D01*
X007485Y000895D01*
X007500Y000880D01*
X007227Y000880D01*
X007252Y000914D01*
X007284Y000977D01*
X007306Y001045D01*
X007317Y001115D01*
X007317Y001400D01*
X006917Y001400D01*
X006917Y001500D01*
X007317Y001500D01*
X007317Y001785D01*
X007306Y001855D01*
X007284Y001923D01*
X007252Y001986D01*
X007210Y002043D01*
X007160Y002093D01*
X007103Y002135D01*
X007039Y002167D01*
X006972Y002189D01*
X006917Y002198D01*
X006917Y001500D01*
X006817Y001500D01*
X006817Y002198D01*
X006761Y002189D01*
X006694Y002167D01*
X006631Y002135D01*
X006574Y002093D01*
X006523Y002043D01*
X006482Y001986D01*
X006450Y001923D01*
X006282Y001923D01*
X006248Y002005D02*
X006317Y001840D01*
X006317Y001060D01*
X006248Y000895D01*
X006233Y000880D01*
X006507Y000880D01*
X006482Y000914D01*
X006450Y000977D01*
X006428Y001045D01*
X006417Y001115D01*
X006417Y001400D01*
X006817Y001400D01*
X006817Y001500D01*
X006417Y001500D01*
X006417Y001785D01*
X006428Y001855D01*
X006450Y001923D01*
X006423Y001825D02*
X006317Y001825D01*
X006317Y001726D02*
X006417Y001726D01*
X006417Y001628D02*
X006317Y001628D01*
X006317Y001529D02*
X006417Y001529D01*
X006317Y001431D02*
X006817Y001431D01*
X006817Y001529D02*
X006917Y001529D01*
X006917Y001431D02*
X007417Y001431D01*
X007417Y001529D02*
X007317Y001529D01*
X007317Y001628D02*
X007417Y001628D01*
X007417Y001726D02*
X007317Y001726D01*
X007310Y001825D02*
X007417Y001825D01*
X007451Y001923D02*
X007284Y001923D01*
X007226Y002022D02*
X007502Y002022D01*
X007557Y002120D02*
X007123Y002120D01*
X006917Y002120D02*
X006817Y002120D01*
X006817Y002022D02*
X006917Y002022D01*
X006917Y001923D02*
X006817Y001923D01*
X006817Y001825D02*
X006917Y001825D01*
X006917Y001726D02*
X006817Y001726D01*
X006817Y001628D02*
X006917Y001628D01*
X007317Y001332D02*
X007417Y001332D01*
X007417Y001234D02*
X007317Y001234D01*
X007317Y001135D02*
X007417Y001135D01*
X007427Y001037D02*
X007303Y001037D01*
X007264Y000938D02*
X007467Y000938D01*
X008266Y000938D02*
X008467Y000938D01*
X008427Y001037D02*
X008307Y001037D01*
X008317Y001135D02*
X008417Y001135D01*
X008417Y001234D02*
X008317Y001234D01*
X008317Y001332D02*
X008417Y001332D01*
X008417Y001431D02*
X008317Y001431D01*
X008317Y001529D02*
X008417Y001529D01*
X008417Y001628D02*
X008317Y001628D01*
X008317Y001726D02*
X008417Y001726D01*
X008404Y001825D02*
X008317Y001825D01*
X008282Y001923D02*
X008369Y001923D01*
X008333Y002022D02*
X008232Y002022D01*
X008177Y002120D02*
X008305Y002120D01*
X008307Y002219D02*
X008177Y002219D01*
X008177Y002317D02*
X008307Y002317D01*
X008307Y002416D02*
X008177Y002416D01*
X008177Y002514D02*
X008307Y002514D01*
X008307Y002613D02*
X008177Y002613D01*
X008177Y002711D02*
X008307Y002711D01*
X008307Y002810D02*
X008177Y002810D01*
X008177Y002908D02*
X008307Y002908D01*
X008307Y003007D02*
X008177Y003007D01*
X008177Y003105D02*
X008307Y003105D01*
X008307Y003204D02*
X008177Y003204D01*
X008177Y003302D02*
X008307Y003302D01*
X008307Y003401D02*
X008177Y003401D01*
X008177Y003499D02*
X008307Y003499D01*
X008307Y003598D02*
X008177Y003598D01*
X008177Y003696D02*
X008307Y003696D01*
X008307Y003795D02*
X008177Y003795D01*
X008177Y003893D02*
X008307Y003893D01*
X008307Y003992D02*
X008177Y003992D01*
X008177Y004090D02*
X008307Y004090D01*
X008307Y004189D02*
X008177Y004189D01*
X008177Y004287D02*
X008307Y004287D01*
X008307Y004386D02*
X008177Y004386D01*
X008177Y004484D02*
X008307Y004484D01*
X008307Y004583D02*
X008177Y004583D01*
X008177Y004681D02*
X008307Y004681D01*
X008307Y004780D02*
X008177Y004780D01*
X008181Y004878D02*
X008307Y004878D01*
X008307Y004977D02*
X008153Y004977D01*
X008084Y005075D02*
X008307Y005075D01*
X008307Y005174D02*
X008006Y005174D01*
X007928Y005272D02*
X008307Y005272D01*
X008307Y005371D02*
X007850Y005371D01*
X007772Y005469D02*
X008307Y005469D01*
X008307Y005568D02*
X007694Y005568D01*
X007616Y005666D02*
X008307Y005666D01*
X008307Y005765D02*
X007538Y005765D01*
X007460Y005863D02*
X008307Y005863D01*
X008307Y005962D02*
X007437Y005962D01*
X007437Y006060D02*
X008307Y006060D01*
X008307Y006159D02*
X007435Y006159D01*
X007394Y006257D02*
X008307Y006257D01*
X008307Y006356D02*
X007347Y006356D01*
X007248Y006454D02*
X008307Y006454D01*
X008307Y006553D02*
X007068Y006553D01*
X007252Y006651D02*
X008307Y006651D01*
X008307Y006750D02*
X007341Y006750D01*
X007397Y006848D02*
X008307Y006848D01*
X008307Y006947D02*
X007427Y006947D01*
X007428Y007144D02*
X008307Y007144D01*
X008307Y007045D02*
X006947Y007045D01*
X006887Y007045D02*
X006330Y007045D01*
X006405Y007144D02*
X005027Y007144D01*
X005027Y007092D02*
X005027Y007415D01*
X004939Y007503D01*
X004543Y007503D01*
X004538Y007498D01*
X004522Y007503D01*
X004385Y007503D01*
X004385Y007176D01*
X004349Y007176D01*
X004349Y007503D01*
X004211Y007503D01*
X004195Y007498D01*
X004191Y007503D01*
X003827Y007503D01*
X003827Y008424D01*
X003827Y008326D02*
X006057Y008326D01*
X006057Y008425D02*
X005926Y008555D01*
X005847Y008747D01*
X005847Y008953D01*
X005926Y009145D01*
X006072Y009291D01*
X006263Y009370D01*
X006399Y009370D01*
X006347Y009497D01*
X006347Y009703D01*
X006426Y009895D01*
X006572Y010041D01*
X006763Y010120D01*
X006970Y010120D01*
X007161Y010041D01*
X007308Y009895D01*
X007387Y009703D01*
X007387Y009497D01*
X007334Y009370D01*
X007337Y009370D01*
X007337Y008880D01*
X007397Y008880D01*
X007887Y008880D01*
X007887Y008891D01*
X007874Y008972D01*
X007849Y009050D01*
X007811Y009123D01*
X007763Y009189D01*
X007705Y009247D01*
X007639Y009295D01*
X007566Y009332D01*
X007488Y009357D01*
X007408Y009370D01*
X007397Y009370D01*
X007397Y008880D01*
X007397Y008820D01*
X007887Y008820D01*
X007887Y008809D01*
X007874Y008728D01*
X007849Y008650D01*
X007811Y008577D01*
X007763Y008511D01*
X007705Y008453D01*
X007639Y008405D01*
X007566Y008368D01*
X007488Y008343D01*
X007408Y008330D01*
X007397Y008330D01*
X007397Y008820D01*
X007337Y008820D01*
X007337Y008330D01*
X007326Y008330D01*
X007245Y008343D01*
X007167Y008368D01*
X007094Y008405D01*
X007028Y008453D01*
X006970Y008511D01*
X006922Y008577D01*
X006885Y008650D01*
X006868Y008702D01*
X006808Y008555D01*
X006734Y008482D01*
X008736Y007636D01*
X009443Y007636D01*
X009334Y007538D02*
X008868Y007538D01*
X008879Y007526D02*
X008837Y007568D01*
X008794Y007612D01*
X008793Y007612D01*
X008792Y007613D01*
X008736Y007636D01*
X008879Y007526D02*
X008880Y007525D01*
X008881Y007524D01*
X008903Y007468D01*
X008927Y007412D01*
X008927Y007411D01*
X008927Y007410D01*
X008927Y007349D01*
X008927Y002204D01*
X008928Y002200D01*
X008956Y002200D01*
X009122Y002131D01*
X009248Y002005D01*
X009317Y001840D01*
X009317Y001060D01*
X009248Y000895D01*
X009233Y000880D01*
X010787Y000880D01*
X010787Y003184D01*
X010632Y003120D01*
X009901Y003120D01*
X009743Y003185D01*
X009622Y003306D01*
X009557Y003464D01*
X009557Y003636D01*
X009622Y003794D01*
X009743Y003915D01*
X009901Y003980D01*
X010632Y003980D01*
X010787Y003916D01*
X010787Y004184D01*
X010632Y004120D01*
X009901Y004120D01*
X009743Y004185D01*
X009622Y004306D01*
X009557Y004464D01*
X009557Y004636D01*
X009622Y004794D01*
X009743Y004915D01*
X009901Y004980D01*
X010632Y004980D01*
X010787Y004916D01*
X010787Y005184D01*
X010632Y005120D01*
X009901Y005120D01*
X009743Y005185D01*
X009622Y005306D01*
X009557Y005464D01*
X009557Y005621D01*
X009226Y005823D01*
X009191Y005837D01*
X009174Y005855D01*
X009152Y005868D01*
X009130Y005898D01*
X009104Y005924D01*
X009094Y005947D01*
X009080Y005967D01*
X009071Y006004D01*
X009057Y006038D01*
X009057Y006063D01*
X009051Y006087D01*
X009057Y006124D01*
X009057Y007097D01*
X009054Y007105D01*
X009057Y007158D01*
X009057Y007212D01*
X009060Y007219D01*
X009060Y007228D01*
X009083Y007276D01*
X009104Y007326D01*
X009110Y007332D01*
X009113Y007339D01*
X009153Y007375D01*
X009191Y007413D01*
X009199Y007416D01*
X009557Y007738D01*
X009557Y015331D01*
X009525Y015400D01*
X009427Y015400D01*
X009262Y015469D01*
X009135Y015595D01*
X009067Y015760D01*
X009067Y016540D01*
X009100Y016620D01*
X008933Y016620D01*
X008967Y016540D01*
X008967Y015760D01*
X008898Y015595D01*
X008772Y015469D01*
X008606Y015400D01*
X008427Y015400D01*
X008262Y015469D01*
X008135Y015595D01*
X008067Y015760D01*
X008067Y016540D01*
X008100Y016620D01*
X007933Y016620D01*
X007967Y016540D01*
X007967Y015760D01*
X007898Y015595D01*
X007772Y015469D01*
X007606Y015400D01*
X007427Y015400D01*
X007262Y015469D01*
X007135Y015595D01*
X007067Y015760D01*
X007067Y016540D01*
X007100Y016620D01*
X006933Y016620D01*
X006967Y016540D01*
X006967Y015760D01*
X006898Y015595D01*
X006772Y015469D01*
X006606Y015400D01*
X006427Y015400D01*
X006262Y015469D01*
X006135Y015595D01*
X006067Y015760D01*
X006067Y016540D01*
X006100Y016620D01*
X005933Y016620D01*
X005967Y016540D01*
X005967Y015760D01*
X005898Y015595D01*
X005772Y015469D01*
X005606Y015400D01*
X005427Y015400D01*
X005262Y015469D01*
X005135Y015595D01*
X005067Y015760D01*
X005067Y016540D01*
X005100Y016620D01*
X004933Y016620D01*
X004967Y016540D01*
X004967Y015760D01*
X004898Y015595D01*
X004827Y015524D01*
X004827Y012896D01*
X004831Y012881D01*
X004827Y012835D01*
X004827Y012788D01*
X004821Y012774D01*
X004783Y012402D01*
X004785Y012401D01*
X004968Y012218D01*
X005067Y011979D01*
X005067Y011721D01*
X004968Y011482D01*
X004785Y011299D01*
X004577Y011213D01*
X004577Y011212D01*
X004577Y010220D01*
X004677Y010120D01*
X004677Y009780D01*
X004577Y009680D01*
X004577Y009073D01*
X004582Y009035D01*
X004577Y009012D01*
X004577Y008988D01*
X004577Y009015D02*
X005872Y009015D01*
X005847Y008917D02*
X004553Y008917D01*
X004481Y008818D02*
X005847Y008818D01*
X005858Y008720D02*
X004318Y008720D01*
X004154Y008621D02*
X005899Y008621D01*
X005959Y008523D02*
X003990Y008523D01*
X003827Y008227D02*
X006061Y008227D01*
X006102Y008129D02*
X003827Y008129D01*
X003827Y008030D02*
X006208Y008030D01*
X006442Y007932D02*
X003827Y007932D01*
X003827Y007833D02*
X006676Y007833D01*
X006909Y007735D02*
X003827Y007735D01*
X003827Y007636D02*
X007142Y007636D01*
X007099Y007538D02*
X007376Y007538D01*
X007263Y007439D02*
X007609Y007439D01*
X007842Y007341D02*
X007348Y007341D01*
X007401Y007242D02*
X008075Y007242D01*
X008270Y007833D02*
X009557Y007833D01*
X009557Y007932D02*
X008036Y007932D01*
X007803Y008030D02*
X009557Y008030D01*
X009557Y008129D02*
X007570Y008129D01*
X007665Y008424D02*
X009557Y008424D01*
X009557Y008326D02*
X007103Y008326D01*
X007068Y008424D02*
X006870Y008424D01*
X006962Y008523D02*
X006775Y008523D01*
X006835Y008621D02*
X006900Y008621D01*
X007337Y008621D02*
X007397Y008621D01*
X007397Y008523D02*
X007337Y008523D01*
X007337Y008424D02*
X007397Y008424D01*
X007336Y008227D02*
X009557Y008227D01*
X009557Y008523D02*
X007771Y008523D01*
X007834Y008621D02*
X009557Y008621D01*
X009557Y008720D02*
X007871Y008720D01*
X007887Y008818D02*
X009557Y008818D01*
X009557Y008917D02*
X007883Y008917D01*
X007860Y009015D02*
X009557Y009015D01*
X009557Y009114D02*
X007816Y009114D01*
X007740Y009212D02*
X009557Y009212D01*
X009557Y009311D02*
X007608Y009311D01*
X007397Y009311D02*
X007337Y009311D01*
X007350Y009409D02*
X009557Y009409D01*
X009557Y009508D02*
X007387Y009508D01*
X007387Y009606D02*
X009557Y009606D01*
X009557Y009705D02*
X007386Y009705D01*
X007345Y009803D02*
X009557Y009803D01*
X009557Y009902D02*
X007301Y009902D01*
X007202Y010000D02*
X009557Y010000D01*
X009557Y010099D02*
X007022Y010099D01*
X006711Y010099D02*
X004677Y010099D01*
X004677Y010000D02*
X006531Y010000D01*
X006433Y009902D02*
X004677Y009902D01*
X004677Y009803D02*
X006388Y009803D01*
X006347Y009705D02*
X004601Y009705D01*
X004577Y009606D02*
X006347Y009606D01*
X006347Y009508D02*
X004577Y009508D01*
X004577Y009409D02*
X006383Y009409D01*
X006120Y009311D02*
X004577Y009311D01*
X004577Y009212D02*
X005993Y009212D01*
X005913Y009114D02*
X004577Y009114D01*
X004599Y010197D02*
X009557Y010197D01*
X009557Y010296D02*
X004577Y010296D01*
X004577Y010394D02*
X009557Y010394D01*
X009557Y010493D02*
X004577Y010493D01*
X004577Y010591D02*
X009557Y010591D01*
X009557Y010690D02*
X004577Y010690D01*
X004577Y010788D02*
X005249Y010788D01*
X005347Y010690D02*
X005107Y010930D01*
X005107Y011270D01*
X005347Y011510D01*
X005686Y011510D01*
X005927Y011270D01*
X005927Y010930D01*
X005686Y010690D01*
X005347Y010690D01*
X005150Y010887D02*
X004577Y010887D01*
X004577Y010985D02*
X005107Y010985D01*
X005107Y011084D02*
X004577Y011084D01*
X004577Y011182D02*
X005107Y011182D01*
X005117Y011281D02*
X004740Y011281D01*
X004865Y011379D02*
X005216Y011379D01*
X005314Y011478D02*
X004963Y011478D01*
X005007Y011576D02*
X009557Y011576D01*
X009557Y011478D02*
X006869Y011478D01*
X006836Y011510D02*
X006497Y011510D01*
X006257Y011270D01*
X006257Y010930D01*
X006497Y010690D01*
X006836Y010690D01*
X007077Y010930D01*
X007077Y011270D01*
X006836Y011510D01*
X006967Y011379D02*
X009557Y011379D01*
X009557Y011281D02*
X007066Y011281D01*
X007077Y011182D02*
X009557Y011182D01*
X009557Y011084D02*
X007077Y011084D01*
X007077Y010985D02*
X009557Y010985D01*
X009557Y010887D02*
X007033Y010887D01*
X006935Y010788D02*
X009557Y010788D01*
X009557Y011675D02*
X005048Y011675D01*
X005067Y011773D02*
X009557Y011773D01*
X009557Y011872D02*
X005067Y011872D01*
X005067Y011970D02*
X009557Y011970D01*
X009557Y012069D02*
X005030Y012069D01*
X004989Y012167D02*
X009557Y012167D01*
X009557Y012266D02*
X004920Y012266D01*
X004822Y012364D02*
X009557Y012364D01*
X009557Y012463D02*
X004789Y012463D01*
X004799Y012561D02*
X009557Y012561D01*
X009557Y012660D02*
X004809Y012660D01*
X004819Y012758D02*
X009557Y012758D01*
X009557Y012857D02*
X004829Y012857D01*
X004827Y012955D02*
X009557Y012955D01*
X009557Y013054D02*
X004827Y013054D01*
X004827Y013152D02*
X009557Y013152D01*
X009557Y013251D02*
X004827Y013251D01*
X004827Y013349D02*
X009557Y013349D01*
X009557Y013448D02*
X004827Y013448D01*
X004827Y013546D02*
X009557Y013546D01*
X009557Y013645D02*
X004827Y013645D01*
X004827Y013743D02*
X005294Y013743D01*
X005347Y013690D02*
X005107Y013930D01*
X005107Y014270D01*
X005347Y014510D01*
X005686Y014510D01*
X005927Y014270D01*
X005927Y013930D01*
X005686Y013690D01*
X005347Y013690D01*
X005195Y013842D02*
X004827Y013842D01*
X004827Y013940D02*
X005107Y013940D01*
X005107Y014039D02*
X004827Y014039D01*
X004827Y014137D02*
X005107Y014137D01*
X005107Y014236D02*
X004827Y014236D01*
X004827Y014334D02*
X005171Y014334D01*
X005269Y014433D02*
X004827Y014433D01*
X004827Y014531D02*
X009557Y014531D01*
X009557Y014433D02*
X006914Y014433D01*
X006836Y014510D02*
X007077Y014270D01*
X007077Y013930D01*
X006836Y013690D01*
X006497Y013690D01*
X006257Y013930D01*
X006257Y014270D01*
X006497Y014510D01*
X006836Y014510D01*
X007012Y014334D02*
X009557Y014334D01*
X009557Y014236D02*
X007077Y014236D01*
X007077Y014137D02*
X009557Y014137D01*
X009557Y014039D02*
X007077Y014039D01*
X007077Y013940D02*
X009557Y013940D01*
X009557Y013842D02*
X006988Y013842D01*
X006890Y013743D02*
X009557Y013743D01*
X009557Y014630D02*
X004827Y014630D01*
X004827Y014728D02*
X009557Y014728D01*
X009557Y014827D02*
X004827Y014827D01*
X004827Y014925D02*
X009557Y014925D01*
X009557Y015024D02*
X004827Y015024D01*
X004827Y015122D02*
X009557Y015122D01*
X009557Y015221D02*
X004827Y015221D01*
X004827Y015319D02*
X009557Y015319D01*
X009385Y015418D02*
X008649Y015418D01*
X008819Y015516D02*
X009214Y015516D01*
X009127Y015615D02*
X008906Y015615D01*
X008947Y015713D02*
X009086Y015713D01*
X009067Y015812D02*
X008967Y015812D01*
X008967Y015910D02*
X009067Y015910D01*
X009067Y016009D02*
X008967Y016009D01*
X008967Y016107D02*
X009067Y016107D01*
X009067Y016206D02*
X008967Y016206D01*
X008967Y016304D02*
X009067Y016304D01*
X009067Y016403D02*
X008967Y016403D01*
X008967Y016501D02*
X009067Y016501D01*
X009092Y016600D02*
X008942Y016600D01*
X008214Y015516D02*
X007819Y015516D01*
X007906Y015615D02*
X008127Y015615D01*
X008086Y015713D02*
X007947Y015713D01*
X007967Y015812D02*
X008067Y015812D01*
X008067Y015910D02*
X007967Y015910D01*
X007967Y016009D02*
X008067Y016009D01*
X008067Y016107D02*
X007967Y016107D01*
X007967Y016206D02*
X008067Y016206D01*
X008067Y016304D02*
X007967Y016304D01*
X007967Y016403D02*
X008067Y016403D01*
X008067Y016501D02*
X007967Y016501D01*
X007942Y016600D02*
X008092Y016600D01*
X008385Y015418D02*
X007649Y015418D01*
X007385Y015418D02*
X006649Y015418D01*
X006819Y015516D02*
X007214Y015516D01*
X007127Y015615D02*
X006906Y015615D01*
X006947Y015713D02*
X007086Y015713D01*
X007067Y015812D02*
X006967Y015812D01*
X006967Y015910D02*
X007067Y015910D01*
X007067Y016009D02*
X006967Y016009D01*
X006967Y016107D02*
X007067Y016107D01*
X007067Y016206D02*
X006967Y016206D01*
X006967Y016304D02*
X007067Y016304D01*
X007067Y016403D02*
X006967Y016403D01*
X006967Y016501D02*
X007067Y016501D01*
X007092Y016600D02*
X006942Y016600D01*
X006127Y015615D02*
X005906Y015615D01*
X005947Y015713D02*
X006086Y015713D01*
X006067Y015812D02*
X005967Y015812D01*
X005967Y015910D02*
X006067Y015910D01*
X006067Y016009D02*
X005967Y016009D01*
X005967Y016107D02*
X006067Y016107D01*
X006067Y016206D02*
X005967Y016206D01*
X005967Y016304D02*
X006067Y016304D01*
X006067Y016403D02*
X005967Y016403D01*
X005967Y016501D02*
X006067Y016501D01*
X006092Y016600D02*
X005942Y016600D01*
X005819Y015516D02*
X006214Y015516D01*
X006385Y015418D02*
X005649Y015418D01*
X005385Y015418D02*
X004827Y015418D01*
X004827Y015516D02*
X005214Y015516D01*
X005127Y015615D02*
X004906Y015615D01*
X004947Y015713D02*
X005086Y015713D01*
X005067Y015812D02*
X004967Y015812D01*
X004967Y015910D02*
X005067Y015910D01*
X005067Y016009D02*
X004967Y016009D01*
X004967Y016107D02*
X005067Y016107D01*
X005067Y016206D02*
X004967Y016206D01*
X004967Y016304D02*
X005067Y016304D01*
X005067Y016403D02*
X004967Y016403D01*
X004967Y016501D02*
X005067Y016501D01*
X005092Y016600D02*
X004942Y016600D01*
X005764Y014433D02*
X006419Y014433D01*
X006321Y014334D02*
X005862Y014334D01*
X005927Y014236D02*
X006257Y014236D01*
X006257Y014137D02*
X005927Y014137D01*
X005927Y014039D02*
X006257Y014039D01*
X006257Y013940D02*
X005927Y013940D01*
X005838Y013842D02*
X006345Y013842D01*
X006444Y013743D02*
X005740Y013743D01*
X005719Y011478D02*
X006464Y011478D01*
X006366Y011379D02*
X005817Y011379D01*
X005916Y011281D02*
X006267Y011281D01*
X006257Y011182D02*
X005927Y011182D01*
X005927Y011084D02*
X006257Y011084D01*
X006257Y010985D02*
X005927Y010985D01*
X005883Y010887D02*
X006300Y010887D01*
X006399Y010788D02*
X005785Y010788D01*
X007337Y009212D02*
X007397Y009212D01*
X007397Y009114D02*
X007337Y009114D01*
X007337Y009015D02*
X007397Y009015D01*
X007397Y008917D02*
X007337Y008917D01*
X007337Y008818D02*
X007397Y008818D01*
X007397Y008720D02*
X007337Y008720D01*
X006947Y007538D02*
X006887Y007538D01*
X006887Y007439D02*
X006947Y007439D01*
X006947Y007341D02*
X006887Y007341D01*
X006887Y007242D02*
X006947Y007242D01*
X006947Y007144D02*
X006887Y007144D01*
X006734Y007538D02*
X003827Y007538D01*
X004349Y007439D02*
X004385Y007439D01*
X004385Y007341D02*
X004349Y007341D01*
X004349Y007242D02*
X004385Y007242D01*
X004385Y007140D02*
X004349Y007140D01*
X004349Y006963D01*
X004356Y006964D01*
X004367Y006960D01*
X004378Y006960D01*
X004385Y006957D01*
X004385Y007140D01*
X004385Y007045D02*
X004349Y007045D01*
X005027Y007092D02*
X005431Y006417D01*
X005446Y006403D01*
X005458Y006372D01*
X005476Y006343D01*
X005479Y006323D01*
X005487Y006304D01*
X005487Y006270D01*
X005492Y006237D01*
X005487Y006217D01*
X005487Y004950D01*
X005497Y004960D01*
X005836Y004960D01*
X006077Y004720D01*
X006077Y004380D01*
X005836Y004140D01*
X005497Y004140D01*
X005357Y004280D01*
X004873Y004280D01*
X004927Y004226D01*
X004927Y003866D01*
X004859Y003798D01*
X004927Y003730D01*
X004927Y003370D01*
X004872Y003315D01*
X005081Y002967D01*
X005096Y002953D01*
X005108Y002922D01*
X005126Y002893D01*
X005129Y002873D01*
X005137Y002854D01*
X005137Y002820D01*
X005142Y002787D01*
X005137Y002767D01*
X005137Y002116D01*
X005248Y002005D01*
X005317Y001840D01*
X005317Y001060D01*
X005248Y000895D01*
X005233Y000880D01*
X005500Y000880D01*
X005485Y000895D01*
X005417Y001060D01*
X005417Y001840D01*
X005485Y002005D01*
X005612Y002131D01*
X005777Y002200D01*
X005956Y002200D01*
X006122Y002131D01*
X006248Y002005D01*
X006232Y002022D02*
X006508Y002022D01*
X006610Y002120D02*
X006133Y002120D01*
X005600Y002120D02*
X005137Y002120D01*
X005137Y002219D02*
X007557Y002219D01*
X007557Y002317D02*
X005137Y002317D01*
X005137Y002416D02*
X007557Y002416D01*
X007557Y002514D02*
X005137Y002514D01*
X005137Y002613D02*
X007557Y002613D01*
X007557Y002711D02*
X005137Y002711D01*
X005138Y002810D02*
X007557Y002810D01*
X007557Y002908D02*
X005117Y002908D01*
X005058Y003007D02*
X007557Y003007D01*
X007557Y003105D02*
X004999Y003105D01*
X004939Y003204D02*
X007557Y003204D01*
X007557Y003302D02*
X004880Y003302D01*
X004927Y003401D02*
X007557Y003401D01*
X007557Y003499D02*
X004927Y003499D01*
X004927Y003598D02*
X007557Y003598D01*
X007557Y003696D02*
X004927Y003696D01*
X004862Y003795D02*
X007557Y003795D01*
X007557Y003893D02*
X004927Y003893D01*
X004927Y003992D02*
X007557Y003992D01*
X007557Y004090D02*
X004927Y004090D01*
X004927Y004189D02*
X005448Y004189D01*
X005885Y004189D02*
X006448Y004189D01*
X006497Y004140D02*
X006257Y004380D01*
X006257Y004520D01*
X006637Y004520D01*
X006697Y004520D01*
X006697Y004580D01*
X007077Y004580D01*
X007077Y004720D01*
X006836Y004960D01*
X006697Y004960D01*
X006697Y004580D01*
X006637Y004580D01*
X006637Y004960D01*
X006497Y004960D01*
X006257Y004720D01*
X006257Y004580D01*
X006637Y004580D01*
X006637Y004520D01*
X006637Y004140D01*
X006497Y004140D01*
X006637Y004189D02*
X006697Y004189D01*
X006697Y004140D02*
X006836Y004140D01*
X007077Y004380D01*
X007077Y004520D01*
X006697Y004520D01*
X006697Y004140D01*
X006697Y004287D02*
X006637Y004287D01*
X006637Y004386D02*
X006697Y004386D01*
X006697Y004484D02*
X006637Y004484D01*
X006637Y004583D02*
X006697Y004583D01*
X006697Y004681D02*
X006637Y004681D01*
X006637Y004780D02*
X006697Y004780D01*
X006697Y004878D02*
X006637Y004878D01*
X006415Y004878D02*
X005918Y004878D01*
X006017Y004780D02*
X006316Y004780D01*
X006257Y004681D02*
X006077Y004681D01*
X006077Y004583D02*
X006257Y004583D01*
X006257Y004484D02*
X006077Y004484D01*
X006077Y004386D02*
X006257Y004386D01*
X006350Y004287D02*
X005984Y004287D01*
X005487Y004977D02*
X007371Y004977D01*
X007293Y005075D02*
X005487Y005075D01*
X005487Y005174D02*
X007215Y005174D01*
X007137Y005272D02*
X005487Y005272D01*
X005487Y005371D02*
X007059Y005371D01*
X006981Y005469D02*
X005487Y005469D01*
X005487Y005568D02*
X006723Y005568D01*
X006565Y005666D02*
X005487Y005666D01*
X005487Y005765D02*
X006472Y005765D01*
X006431Y005863D02*
X005487Y005863D01*
X005487Y005962D02*
X006397Y005962D01*
X006397Y006060D02*
X006343Y006060D01*
X005991Y006060D02*
X005487Y006060D01*
X005487Y006159D02*
X005823Y006159D01*
X005725Y006257D02*
X005489Y006257D01*
X005468Y006356D02*
X005684Y006356D01*
X005647Y006454D02*
X005409Y006454D01*
X005350Y006553D02*
X005647Y006553D01*
X005647Y006651D02*
X005291Y006651D01*
X005232Y006750D02*
X005686Y006750D01*
X005729Y006848D02*
X005173Y006848D01*
X005114Y006947D02*
X005828Y006947D01*
X006003Y007045D02*
X005055Y007045D01*
X005027Y007242D02*
X006432Y007242D01*
X006485Y007341D02*
X005027Y007341D01*
X005002Y007439D02*
X006570Y007439D01*
X006918Y004878D02*
X007449Y004878D01*
X007527Y004780D02*
X007017Y004780D01*
X007077Y004681D02*
X007557Y004681D01*
X007557Y004583D02*
X007077Y004583D01*
X007077Y004484D02*
X007557Y004484D01*
X007557Y004386D02*
X007077Y004386D01*
X006984Y004287D02*
X007557Y004287D01*
X007557Y004189D02*
X006885Y004189D01*
X005502Y002022D02*
X005232Y002022D01*
X005282Y001923D02*
X005451Y001923D01*
X005417Y001825D02*
X005317Y001825D01*
X005317Y001726D02*
X005417Y001726D01*
X005417Y001628D02*
X005317Y001628D01*
X005317Y001529D02*
X005417Y001529D01*
X005417Y001431D02*
X005317Y001431D01*
X005317Y001332D02*
X005417Y001332D01*
X005417Y001234D02*
X005317Y001234D01*
X005317Y001135D02*
X005417Y001135D01*
X005427Y001037D02*
X005307Y001037D01*
X005266Y000938D02*
X005467Y000938D01*
X006266Y000938D02*
X006470Y000938D01*
X006430Y001037D02*
X006307Y001037D01*
X006317Y001135D02*
X006417Y001135D01*
X006417Y001234D02*
X006317Y001234D01*
X006317Y001332D02*
X006417Y001332D01*
X004050Y004313D02*
X004019Y004307D01*
X003593Y004041D01*
X003564Y004029D01*
X003547Y004013D01*
X003528Y004000D01*
X003510Y003975D01*
X003488Y003953D01*
X003479Y003932D01*
X003466Y003913D01*
X003459Y003883D01*
X003447Y003854D01*
X003447Y003831D01*
X003442Y003808D01*
X003447Y003778D01*
X003447Y002017D01*
X003442Y001981D01*
X003447Y001964D01*
X003447Y001946D01*
X003454Y001929D01*
X003417Y001840D01*
X003417Y001060D01*
X003485Y000895D01*
X003500Y000880D01*
X003233Y000880D01*
X003248Y000895D01*
X003317Y001060D01*
X003317Y001840D01*
X003297Y001887D01*
X003320Y001956D01*
X003337Y001996D01*
X003337Y002006D01*
X003340Y002016D01*
X003337Y002060D01*
X003337Y003785D01*
X003341Y003823D01*
X003337Y003838D01*
X003337Y003854D01*
X003322Y003889D01*
X003312Y003926D01*
X003302Y003938D01*
X003296Y003953D01*
X003269Y003980D01*
X003245Y004010D01*
X003231Y004018D01*
X003220Y004029D01*
X003184Y004044D01*
X002822Y004245D01*
X002767Y004300D01*
X002837Y004370D01*
X002837Y004730D01*
X002767Y004800D01*
X002807Y004840D01*
X003028Y004840D01*
X003142Y004887D01*
X003229Y004974D01*
X003277Y005088D01*
X003277Y005690D01*
X004028Y005690D01*
X004142Y005737D01*
X004229Y005824D01*
X004235Y005838D01*
X004278Y005881D01*
X004278Y006033D01*
X004307Y005977D01*
X004307Y005314D01*
X004084Y005314D01*
X003997Y005226D01*
X003997Y004866D01*
X004066Y004796D01*
X003997Y004726D01*
X003997Y004712D01*
X003988Y004703D01*
X003947Y004604D01*
X003947Y004496D01*
X003988Y004397D01*
X003997Y004388D01*
X003997Y004366D01*
X004050Y004313D01*
X003986Y004287D02*
X002780Y004287D01*
X002837Y004386D02*
X003997Y004386D01*
X003952Y004484D02*
X002837Y004484D01*
X002837Y004583D02*
X003947Y004583D01*
X003979Y004681D02*
X002837Y004681D01*
X002787Y004780D02*
X004050Y004780D01*
X003997Y004878D02*
X003120Y004878D01*
X003230Y004977D02*
X003997Y004977D01*
X003997Y005075D02*
X003271Y005075D01*
X003277Y005174D02*
X003997Y005174D01*
X004042Y005272D02*
X003277Y005272D01*
X003277Y005371D02*
X004307Y005371D01*
X004307Y005469D02*
X003277Y005469D01*
X003277Y005568D02*
X004307Y005568D01*
X004307Y005666D02*
X003277Y005666D01*
X002657Y005666D02*
X000897Y005666D01*
X000897Y005568D02*
X002657Y005568D01*
X002657Y005469D02*
X000897Y005469D01*
X000897Y005371D02*
X001999Y005371D01*
X002041Y005413D02*
X001954Y005326D01*
X001920Y005243D01*
X001907Y005230D01*
X001907Y005212D01*
X001907Y005212D01*
X001907Y005088D01*
X001907Y004870D01*
X001977Y004800D01*
X001907Y004730D01*
X001907Y004370D01*
X001977Y004300D01*
X001907Y004230D01*
X001907Y003870D01*
X001977Y003800D01*
X001907Y003730D01*
X001907Y003370D01*
X001946Y003331D01*
X001665Y002980D01*
X001638Y002953D01*
X001632Y002939D01*
X001622Y002927D01*
X001611Y002890D01*
X001597Y002854D01*
X001597Y002838D01*
X001592Y002824D01*
X001597Y002785D01*
X001597Y002116D01*
X001485Y002005D01*
X001417Y001840D01*
X001417Y001060D01*
X001485Y000895D01*
X001500Y000880D01*
X000897Y000880D01*
X000897Y008369D01*
X002067Y008400D01*
X002064Y008445D01*
X002074Y008435D01*
X002237Y008435D01*
X002237Y008870D01*
X002297Y008870D01*
X002297Y008435D01*
X002459Y008435D01*
X002657Y008632D01*
X002657Y005460D01*
X002155Y005460D01*
X002041Y005413D01*
X001932Y005272D02*
X000897Y005272D01*
X000897Y005174D02*
X001907Y005174D01*
X001907Y005088D02*
X001907Y005088D01*
X001907Y005075D02*
X000897Y005075D01*
X000897Y004977D02*
X001907Y004977D01*
X001907Y004878D02*
X000897Y004878D01*
X000897Y004780D02*
X001956Y004780D01*
X001907Y004681D02*
X000897Y004681D01*
X000897Y004583D02*
X001907Y004583D01*
X001907Y004484D02*
X000897Y004484D01*
X000897Y004386D02*
X001907Y004386D01*
X001964Y004287D02*
X000897Y004287D01*
X000897Y004189D02*
X001907Y004189D01*
X001907Y004090D02*
X000897Y004090D01*
X000897Y003992D02*
X001907Y003992D01*
X001907Y003893D02*
X000897Y003893D01*
X000897Y003795D02*
X001971Y003795D01*
X001907Y003696D02*
X000897Y003696D01*
X000897Y003598D02*
X001907Y003598D01*
X001907Y003499D02*
X000897Y003499D01*
X000897Y003401D02*
X001907Y003401D01*
X001923Y003302D02*
X000897Y003302D01*
X000897Y003204D02*
X001844Y003204D01*
X001765Y003105D02*
X000897Y003105D01*
X000897Y003007D02*
X001686Y003007D01*
X001617Y002908D02*
X000897Y002908D01*
X000897Y002810D02*
X001594Y002810D01*
X001597Y002711D02*
X000897Y002711D01*
X000897Y002613D02*
X001597Y002613D01*
X001597Y002514D02*
X000897Y002514D01*
X000897Y002416D02*
X001597Y002416D01*
X001597Y002317D02*
X000897Y002317D01*
X000897Y002219D02*
X001597Y002219D01*
X001597Y002120D02*
X000897Y002120D01*
X000897Y002022D02*
X001502Y002022D01*
X001451Y001923D02*
X000897Y001923D01*
X000897Y001825D02*
X001417Y001825D01*
X001417Y001726D02*
X000897Y001726D01*
X000897Y001628D02*
X001417Y001628D01*
X001417Y001529D02*
X000897Y001529D01*
X000897Y001431D02*
X001417Y001431D01*
X001417Y001332D02*
X000897Y001332D01*
X000897Y001234D02*
X001417Y001234D01*
X001417Y001135D02*
X000897Y001135D01*
X000897Y001037D02*
X001427Y001037D01*
X001467Y000938D02*
X000897Y000938D01*
X002923Y004189D02*
X003829Y004189D01*
X003671Y004090D02*
X003101Y004090D01*
X003259Y003992D02*
X003522Y003992D01*
X003461Y003893D02*
X003321Y003893D01*
X003338Y003795D02*
X003444Y003795D01*
X003447Y003696D02*
X003337Y003696D01*
X003337Y003598D02*
X003447Y003598D01*
X003447Y003499D02*
X003337Y003499D01*
X003337Y003401D02*
X003447Y003401D01*
X003447Y003302D02*
X003337Y003302D01*
X003337Y003204D02*
X003447Y003204D01*
X003447Y003105D02*
X003337Y003105D01*
X003337Y003007D02*
X003447Y003007D01*
X003447Y002908D02*
X003337Y002908D01*
X003337Y002810D02*
X003447Y002810D01*
X003447Y002711D02*
X003337Y002711D01*
X003337Y002613D02*
X003447Y002613D01*
X003447Y002514D02*
X003337Y002514D01*
X003337Y002416D02*
X003447Y002416D01*
X003447Y002317D02*
X003337Y002317D01*
X003337Y002219D02*
X003447Y002219D01*
X003447Y002120D02*
X003337Y002120D01*
X003339Y002022D02*
X003447Y002022D01*
X003451Y001923D02*
X003309Y001923D01*
X003317Y001825D02*
X003417Y001825D01*
X003417Y001726D02*
X003317Y001726D01*
X003317Y001628D02*
X003417Y001628D01*
X003417Y001529D02*
X003317Y001529D01*
X003317Y001431D02*
X003417Y001431D01*
X003417Y001332D02*
X003317Y001332D01*
X003317Y001234D02*
X003417Y001234D01*
X003417Y001135D02*
X003317Y001135D01*
X003307Y001037D02*
X003427Y001037D01*
X003467Y000938D02*
X003266Y000938D01*
X002657Y005765D02*
X000897Y005765D01*
X000897Y005863D02*
X002657Y005863D01*
X002657Y005962D02*
X000897Y005962D01*
X000897Y006060D02*
X002657Y006060D01*
X002657Y006159D02*
X000897Y006159D01*
X000897Y006257D02*
X002657Y006257D01*
X002657Y006356D02*
X000897Y006356D01*
X000897Y006454D02*
X002657Y006454D01*
X002657Y006553D02*
X000897Y006553D01*
X000897Y006651D02*
X002657Y006651D01*
X002657Y006750D02*
X000897Y006750D01*
X000897Y006848D02*
X002657Y006848D01*
X002657Y006947D02*
X000897Y006947D01*
X000897Y007045D02*
X002657Y007045D01*
X002657Y007144D02*
X000897Y007144D01*
X000897Y007242D02*
X002657Y007242D01*
X002657Y007341D02*
X000897Y007341D01*
X000897Y007439D02*
X002657Y007439D01*
X002657Y007538D02*
X000897Y007538D01*
X000897Y007636D02*
X002657Y007636D01*
X002657Y007735D02*
X000897Y007735D01*
X000897Y007833D02*
X002657Y007833D01*
X002657Y007932D02*
X000897Y007932D01*
X000897Y008030D02*
X002657Y008030D01*
X002657Y008129D02*
X000897Y008129D01*
X000897Y008227D02*
X002657Y008227D01*
X002657Y008326D02*
X000897Y008326D01*
X001237Y009085D02*
X001237Y009365D01*
X001230Y009365D01*
X001158Y009354D01*
X001088Y009331D01*
X001023Y009298D01*
X000964Y009255D01*
X000912Y009203D01*
X000897Y009182D01*
X000897Y009740D01*
X001097Y009540D01*
X001237Y009540D01*
X001237Y009920D01*
X001297Y009920D01*
X001297Y009980D01*
X001677Y009980D01*
X001677Y010120D01*
X001436Y010360D01*
X001297Y010360D01*
X001297Y009980D01*
X001237Y009980D01*
X001237Y010360D01*
X001097Y010360D01*
X000897Y010160D01*
X000897Y010704D01*
X001027Y010650D01*
X001806Y010650D01*
X001972Y010719D01*
X002098Y010845D01*
X002167Y011010D01*
X002167Y011190D01*
X002098Y011355D01*
X001972Y011481D01*
X001806Y011550D01*
X001027Y011550D01*
X000897Y011496D01*
X000897Y011704D01*
X001027Y011650D01*
X001806Y011650D01*
X001972Y011719D01*
X002098Y011845D01*
X002167Y012010D01*
X002167Y012190D01*
X002098Y012355D01*
X001972Y012481D01*
X001806Y012550D01*
X001027Y012550D01*
X000897Y012496D01*
X000897Y012704D01*
X001027Y012650D01*
X001806Y012650D01*
X001972Y012719D01*
X002098Y012845D01*
X002167Y013010D01*
X002167Y013190D01*
X002098Y013355D01*
X001972Y013481D01*
X001806Y013550D01*
X001027Y013550D01*
X000897Y013496D01*
X000897Y013707D01*
X000944Y013683D01*
X001011Y013661D01*
X001081Y013650D01*
X001367Y013650D01*
X001367Y014050D01*
X001467Y014050D01*
X001467Y014150D01*
X002164Y014150D01*
X002156Y014205D01*
X002134Y014273D01*
X002102Y014336D01*
X002060Y014393D01*
X002010Y014443D01*
X001953Y014485D01*
X001889Y014517D01*
X001822Y014539D01*
X001752Y014550D01*
X001467Y014550D01*
X001467Y014150D01*
X001367Y014150D01*
X001367Y014550D01*
X001081Y014550D01*
X001011Y014539D01*
X000944Y014517D01*
X000897Y014493D01*
X000897Y016620D01*
X003100Y016620D01*
X003067Y016540D01*
X003067Y015760D01*
X003135Y015595D01*
X003245Y015486D01*
X003052Y015293D01*
X003052Y014907D01*
X003207Y014752D01*
X003207Y013725D01*
X003148Y013701D01*
X002966Y013518D01*
X002867Y013279D01*
X002867Y013021D01*
X002966Y012782D01*
X003148Y012599D01*
X003207Y012575D01*
X003207Y009484D01*
X003137Y009446D01*
X001717Y009400D01*
X001672Y009130D01*
X001664Y009144D01*
X001621Y009203D01*
X001570Y009255D01*
X001510Y009298D01*
X001445Y009331D01*
X001376Y009354D01*
X001303Y009365D01*
X001297Y009365D01*
X001297Y009087D01*
X001237Y009085D01*
X001237Y009114D02*
X001297Y009114D01*
X001297Y009212D02*
X001237Y009212D01*
X001237Y009311D02*
X001297Y009311D01*
X001485Y009311D02*
X001702Y009311D01*
X001685Y009212D02*
X001612Y009212D01*
X001436Y009540D02*
X001297Y009540D01*
X001297Y009920D01*
X001677Y009920D01*
X001677Y009780D01*
X001436Y009540D01*
X001503Y009606D02*
X003207Y009606D01*
X003207Y009508D02*
X000897Y009508D01*
X000897Y009606D02*
X001031Y009606D01*
X000932Y009705D02*
X000897Y009705D01*
X000897Y009409D02*
X001996Y009409D01*
X001677Y009803D02*
X003207Y009803D01*
X003207Y009705D02*
X001601Y009705D01*
X001677Y009902D02*
X003207Y009902D01*
X003207Y010000D02*
X001677Y010000D01*
X001677Y010099D02*
X003207Y010099D01*
X003207Y010197D02*
X001599Y010197D01*
X001501Y010296D02*
X003207Y010296D01*
X003207Y010394D02*
X000897Y010394D01*
X000897Y010296D02*
X001032Y010296D01*
X000934Y010197D02*
X000897Y010197D01*
X000897Y010493D02*
X003207Y010493D01*
X003207Y010591D02*
X000897Y010591D01*
X000897Y010690D02*
X000932Y010690D01*
X001237Y010296D02*
X001297Y010296D01*
X001297Y010197D02*
X001237Y010197D01*
X001237Y010099D02*
X001297Y010099D01*
X001297Y010000D02*
X001237Y010000D01*
X001237Y009902D02*
X001297Y009902D01*
X001297Y009803D02*
X001237Y009803D01*
X001237Y009705D02*
X001297Y009705D01*
X001297Y009606D02*
X001237Y009606D01*
X001048Y009311D02*
X000897Y009311D01*
X000897Y009212D02*
X000921Y009212D01*
X001902Y010690D02*
X003207Y010690D01*
X003207Y010788D02*
X002041Y010788D01*
X002115Y010887D02*
X003207Y010887D01*
X003207Y010985D02*
X002156Y010985D01*
X002167Y011084D02*
X003207Y011084D01*
X003207Y011182D02*
X002167Y011182D01*
X002129Y011281D02*
X003207Y011281D01*
X003207Y011379D02*
X002074Y011379D01*
X001976Y011478D02*
X003207Y011478D01*
X003207Y011576D02*
X000897Y011576D01*
X000897Y011675D02*
X000968Y011675D01*
X000897Y012561D02*
X003207Y012561D01*
X003207Y012463D02*
X001991Y012463D01*
X002089Y012364D02*
X003207Y012364D01*
X003207Y012266D02*
X002135Y012266D01*
X002167Y012167D02*
X003207Y012167D01*
X003207Y012069D02*
X002167Y012069D01*
X002150Y011970D02*
X003207Y011970D01*
X003207Y011872D02*
X002109Y011872D01*
X002026Y011773D02*
X003207Y011773D01*
X003207Y011675D02*
X001865Y011675D01*
X001829Y012660D02*
X003088Y012660D01*
X002989Y012758D02*
X002011Y012758D01*
X002103Y012857D02*
X002935Y012857D01*
X002894Y012955D02*
X002144Y012955D01*
X002167Y013054D02*
X002867Y013054D01*
X002867Y013152D02*
X002167Y013152D01*
X002141Y013251D02*
X002867Y013251D01*
X002896Y013349D02*
X002101Y013349D01*
X002006Y013448D02*
X002936Y013448D01*
X002993Y013546D02*
X001816Y013546D01*
X001822Y013661D02*
X001889Y013683D01*
X001953Y013715D01*
X002010Y013757D01*
X002060Y013807D01*
X002102Y013864D01*
X002134Y013927D01*
X002156Y013995D01*
X002164Y014050D01*
X001467Y014050D01*
X001467Y013650D01*
X001752Y013650D01*
X001822Y013661D01*
X001991Y013743D02*
X003207Y013743D01*
X003207Y013842D02*
X002085Y013842D01*
X002138Y013940D02*
X003207Y013940D01*
X003207Y014039D02*
X002163Y014039D01*
X002146Y014236D02*
X003207Y014236D01*
X003207Y014334D02*
X002102Y014334D01*
X002021Y014433D02*
X003207Y014433D01*
X003207Y014531D02*
X001846Y014531D01*
X001802Y014728D02*
X003207Y014728D01*
X003207Y014630D02*
X000897Y014630D01*
X000897Y014728D02*
X001231Y014728D01*
X001324Y014635D02*
X001052Y014907D01*
X001052Y015070D01*
X001487Y015070D01*
X001547Y015070D01*
X001547Y015130D01*
X001982Y015130D01*
X001982Y015293D01*
X001709Y015565D01*
X001547Y015565D01*
X001547Y015130D01*
X001487Y015130D01*
X001487Y015565D01*
X001324Y015565D01*
X001052Y015293D01*
X001052Y015130D01*
X001487Y015130D01*
X001487Y015070D01*
X001487Y014635D01*
X001324Y014635D01*
X001367Y014531D02*
X001467Y014531D01*
X001467Y014433D02*
X001367Y014433D01*
X001367Y014334D02*
X001467Y014334D01*
X001467Y014236D02*
X001367Y014236D01*
X001467Y014137D02*
X003207Y014137D01*
X003092Y013645D02*
X000897Y013645D01*
X000897Y013546D02*
X001018Y013546D01*
X001367Y013743D02*
X001467Y013743D01*
X001467Y013842D02*
X001367Y013842D01*
X001367Y013940D02*
X001467Y013940D01*
X001467Y014039D02*
X001367Y014039D01*
X000987Y014531D02*
X000897Y014531D01*
X000897Y014827D02*
X001133Y014827D01*
X001052Y014925D02*
X000897Y014925D01*
X000897Y015024D02*
X001052Y015024D01*
X001052Y015221D02*
X000897Y015221D01*
X000897Y015319D02*
X001078Y015319D01*
X001177Y015418D02*
X000897Y015418D01*
X000897Y015516D02*
X001275Y015516D01*
X001487Y015516D02*
X001547Y015516D01*
X001547Y015418D02*
X001487Y015418D01*
X001487Y015319D02*
X001547Y015319D01*
X001547Y015221D02*
X001487Y015221D01*
X001487Y015122D02*
X000897Y015122D01*
X000897Y015615D02*
X003127Y015615D01*
X003086Y015713D02*
X000897Y015713D01*
X000897Y015812D02*
X003067Y015812D01*
X003067Y015910D02*
X000897Y015910D01*
X000897Y016009D02*
X003067Y016009D01*
X003067Y016107D02*
X000897Y016107D01*
X000897Y016206D02*
X003067Y016206D01*
X003067Y016304D02*
X000897Y016304D01*
X000897Y016403D02*
X003067Y016403D01*
X003067Y016501D02*
X000897Y016501D01*
X000897Y016600D02*
X003092Y016600D01*
X003214Y015516D02*
X001758Y015516D01*
X001857Y015418D02*
X003177Y015418D01*
X003078Y015319D02*
X001955Y015319D01*
X001982Y015221D02*
X003052Y015221D01*
X003052Y015122D02*
X001547Y015122D01*
X001547Y015070D02*
X001982Y015070D01*
X001982Y014907D01*
X001709Y014635D01*
X001547Y014635D01*
X001547Y015070D01*
X001547Y015024D02*
X001487Y015024D01*
X001487Y014925D02*
X001547Y014925D01*
X001547Y014827D02*
X001487Y014827D01*
X001487Y014728D02*
X001547Y014728D01*
X001901Y014827D02*
X003133Y014827D01*
X003052Y014925D02*
X001982Y014925D01*
X001982Y015024D02*
X003052Y015024D01*
X001004Y012660D02*
X000897Y012660D01*
X002237Y008818D02*
X002297Y008818D01*
X002297Y008720D02*
X002237Y008720D01*
X002237Y008621D02*
X002297Y008621D01*
X002297Y008523D02*
X002237Y008523D01*
X002065Y008424D02*
X002657Y008424D01*
X002657Y008523D02*
X002547Y008523D01*
X002645Y008621D02*
X002657Y008621D01*
X004278Y005962D02*
X004307Y005962D01*
X004307Y005863D02*
X004260Y005863D01*
X004307Y005765D02*
X004170Y005765D01*
X008503Y007735D02*
X009553Y007735D01*
X009224Y007439D02*
X008915Y007439D01*
X008927Y007341D02*
X009115Y007341D01*
X009067Y007242D02*
X008927Y007242D01*
X008927Y007144D02*
X009056Y007144D01*
X009057Y007045D02*
X008927Y007045D01*
X008927Y006947D02*
X009057Y006947D01*
X009057Y006848D02*
X008927Y006848D01*
X008927Y006750D02*
X009057Y006750D01*
X009057Y006651D02*
X008927Y006651D01*
X008927Y006553D02*
X009057Y006553D01*
X009057Y006454D02*
X008927Y006454D01*
X008927Y006356D02*
X009057Y006356D01*
X009057Y006257D02*
X008927Y006257D01*
X008927Y006159D02*
X009057Y006159D01*
X009057Y006060D02*
X008927Y006060D01*
X008927Y005962D02*
X009084Y005962D01*
X009160Y005863D02*
X008927Y005863D01*
X008927Y005765D02*
X009321Y005765D01*
X009482Y005666D02*
X008927Y005666D01*
X008927Y005568D02*
X009557Y005568D01*
X009557Y005469D02*
X008927Y005469D01*
X008927Y005371D02*
X009596Y005371D01*
X009657Y005272D02*
X008927Y005272D01*
X008927Y005174D02*
X009772Y005174D01*
X009893Y004977D02*
X008927Y004977D01*
X008927Y005075D02*
X010787Y005075D01*
X010787Y004977D02*
X010641Y004977D01*
X010761Y005174D02*
X010787Y005174D01*
X010787Y004090D02*
X008927Y004090D01*
X008927Y003992D02*
X010787Y003992D01*
X010787Y003105D02*
X008927Y003105D01*
X008927Y003007D02*
X010787Y003007D01*
X010787Y002908D02*
X008927Y002908D01*
X008927Y002810D02*
X010787Y002810D01*
X010787Y002711D02*
X008927Y002711D01*
X008927Y002613D02*
X010787Y002613D01*
X010787Y002514D02*
X008927Y002514D01*
X008927Y002416D02*
X010787Y002416D01*
X010787Y002317D02*
X008927Y002317D01*
X008927Y002219D02*
X010787Y002219D01*
X010787Y002120D02*
X009133Y002120D01*
X009232Y002022D02*
X010787Y002022D01*
X010787Y001923D02*
X009282Y001923D01*
X009317Y001825D02*
X010787Y001825D01*
X010787Y001726D02*
X009317Y001726D01*
X009317Y001628D02*
X010787Y001628D01*
X010787Y001529D02*
X009317Y001529D01*
X009317Y001431D02*
X010787Y001431D01*
X010787Y001332D02*
X009317Y001332D01*
X009317Y001234D02*
X010787Y001234D01*
X010787Y001135D02*
X009317Y001135D01*
X009307Y001037D02*
X010787Y001037D01*
X010787Y000938D02*
X009266Y000938D01*
X008927Y003204D02*
X009725Y003204D01*
X009627Y003302D02*
X008927Y003302D01*
X008927Y003401D02*
X009583Y003401D01*
X009557Y003499D02*
X008927Y003499D01*
X008927Y003598D02*
X009557Y003598D01*
X009582Y003696D02*
X008927Y003696D01*
X008927Y003795D02*
X009623Y003795D01*
X009722Y003893D02*
X008927Y003893D01*
X008927Y004189D02*
X009740Y004189D01*
X009642Y004287D02*
X008927Y004287D01*
X008927Y004386D02*
X009589Y004386D01*
X009557Y004484D02*
X008927Y004484D01*
X008927Y004583D02*
X009557Y004583D01*
X009576Y004681D02*
X008927Y004681D01*
X008927Y004780D02*
X009616Y004780D01*
X009707Y004878D02*
X008927Y004878D01*
M02*
