%
M48
M72
T01C0.0236
T02C0.0320
T03C0.0360
T04C0.0400
%
T01
X4917Y8900
T02
X4267Y9950
X5517Y11100
X6667Y11100
X6867Y9600
X7367Y8850
X6367Y8850
X6917Y7050
X6917Y6050
X6167Y6550
X6667Y4550
X5667Y4550
X2267Y8900
X1267Y8900
X1267Y9950
X1517Y15100
X3517Y15100
X5517Y14100
X6667Y14100
T03
X10267Y6550
X10267Y5550
X10267Y4550
X10267Y3550
T04
X1867Y1450
X2867Y1450
X3867Y1450
X4867Y1450
X5867Y1450
X6867Y1450
X7867Y1450
X8867Y1450
X1417Y11100
X1417Y12100
X1417Y13100
X1417Y14100
X3517Y16150
X4517Y16150
X5517Y16150
X6517Y16150
X7517Y16150
X8517Y16150
X9517Y16150
X10517Y16150
M30
