G75*
G70*
%OFA0B0*%
%FSLAX24Y24*%
%IPPOS*%
%LPD*%
%AMOC8*
5,1,8,0,0,1.08239X$1,22.5*
%
%ADD10C,0.0680*%
%ADD11OC8,0.0600*%
%ADD12OC8,0.0710*%
%ADD13C,0.0710*%
%ADD14C,0.0820*%
%ADD15C,0.0640*%
%ADD16R,0.0476X0.0476*%
D10*
X001867Y001150D02*
X001867Y001750D01*
X002867Y001750D02*
X002867Y001150D01*
X003867Y001150D02*
X003867Y001750D01*
X004867Y001750D02*
X004867Y001150D01*
X005867Y001150D02*
X005867Y001750D01*
X006867Y001750D02*
X006867Y001150D01*
X007867Y001150D02*
X007867Y001750D01*
X008867Y001750D02*
X008867Y001150D01*
X001717Y011100D02*
X001117Y011100D01*
X001117Y012100D02*
X001717Y012100D01*
X001717Y013100D02*
X001117Y013100D01*
X001117Y014100D02*
X001717Y014100D01*
X003517Y015850D02*
X003517Y016450D01*
X004517Y016450D02*
X004517Y015850D01*
X005517Y015850D02*
X005517Y016450D01*
X006517Y016450D02*
X006517Y015850D01*
X007517Y015850D02*
X007517Y016450D01*
X008517Y016450D02*
X008517Y015850D01*
X009517Y015850D02*
X009517Y016450D01*
X010517Y016450D02*
X010517Y015850D01*
D11*
X006667Y014100D03*
X005517Y014100D03*
X005517Y011100D03*
X006667Y011100D03*
X004267Y009950D03*
X001267Y009950D03*
X005667Y004550D03*
X006667Y004550D03*
D12*
X002267Y008900D03*
X001517Y015100D03*
X003517Y015100D03*
D13*
X001267Y008900D03*
D14*
X006167Y006550D03*
X006917Y006050D03*
X006917Y007050D03*
X007367Y008850D03*
X006867Y009600D03*
X006367Y008850D03*
D15*
X009987Y006550D02*
X010547Y006550D01*
X010547Y005550D02*
X009987Y005550D01*
X009987Y004550D02*
X010547Y004550D01*
X010547Y003550D02*
X009987Y003550D01*
D16*
X004917Y008900D03*
M02*
